<svg width="123" height="114" viewBox="0 0 123 114" fill="none" xmlns="http://www.w3.org/2000/svg">
<g clip-path="url(#clip0_6427_4)">
<path fill-rule="evenodd" clip-rule="evenodd" d="M87.86 19.65V48.27H81.17V43.85H41.71V48.27H35.02V19.65H32.71V15.25H38.34L41.48 5.49C42.41 2.61 43.95 0 46.97 0H77.07C80.09 0 81.83 2.56 82.56 5.49L84.99 15.25H90.16V19.65H87.86ZM66.41 97.31H88.32C90.08 95.56 92.01 93.74 93.97 91.89C98.08 88 102.37 83.94 106.78 78.86C111.82 73.05 112.36 71.04 113.89 65.35C114.18 64.28 114.5 63.08 114.92 61.59L117.54 52.38L117.57 52.28C118.97 48.18 119.08 45.47 118.5 43.91C118.32 43.43 118.09 43.11 117.82 42.94C117.61 42.8 117.33 42.75 117.04 42.78C116.36 42.85 115.59 43.28 114.89 44.05L107.11 62.58C107.04 62.75 106.94 62.91 106.83 63.05C106.37 63.88 105.75 64.69 104.95 65.46L91.15 80.85C90.4 81.69 89.11 81.76 88.28 81.01C87.44 80.26 87.37 78.97 88.12 78.14L101.93 62.75C101.99 62.68 102.05 62.61 102.12 62.55C103.55 61.19 104 59.72 103.75 58.65C103.67 58.32 103.53 58.04 103.33 57.85C103.14 57.67 102.89 57.56 102.58 57.53C101.35 57.4 99.54 58.31 97.33 60.92C97.27 60.99 97.2 61.06 97.13 61.13L91.78 65.85L91.75 65.88C85.96 71.36 83.47 72.66 78.93 75.03C77.98 75.53 76.94 76.07 75.65 76.77C75.14 77.05 74.64 77.39 74.15 77.76C73.63 78.16 73.13 78.57 72.66 78.97C70.26 80.99 69 82.63 68.28 84.44C67.53 86.32 67.26 88.61 66.89 91.75C66.74 93.02 66.63 94.27 66.54 95.52C66.47 96.12 66.44 96.72 66.41 97.31ZM56.47 97.31H34.55C32.79 95.56 30.86 93.74 28.9 91.89C24.79 88 20.5 83.94 16.09 78.86C11.05 73.05 10.51 71.04 8.98003 65.35C8.69003 64.28 8.37003 63.08 7.95003 61.59L5.33003 52.38L5.30003 52.28C3.90003 48.18 3.79003 45.47 4.37003 43.91C4.55003 43.43 4.78003 43.11 5.05003 42.94C5.26003 42.8 5.54003 42.75 5.83003 42.78C6.51003 42.85 7.28003 43.28 7.98003 44.05L15.76 62.58C15.83 62.75 15.93 62.91 16.04 63.05C16.5 63.88 17.12 64.69 17.92 65.46L31.72 80.85C32.47 81.69 33.76 81.76 34.59 81.01C35.43 80.26 35.5 78.97 34.75 78.14L20.96 62.73C20.9 62.66 20.84 62.59 20.77 62.53C19.34 61.17 18.89 59.7 19.14 58.63C19.22 58.3 19.36 58.02 19.56 57.83C19.75 57.65 20 57.54 20.31 57.51C21.54 57.38 23.36 58.29 25.56 60.9C25.56 60.9 25.75 61.09 25.77 61.11L31.12 65.83L31.15 65.86C36.94 71.34 39.43 72.64 43.97 75.01C44.92 75.51 45.96 76.05 47.25 76.75C47.76 77.03 48.26 77.37 48.75 77.74C49.27 78.14 49.77 78.55 50.24 78.95C52.64 80.97 53.9 82.61 54.62 84.42C55.37 86.3 55.64 88.59 56.01 91.73C56.16 93 56.27 94.25 56.36 95.5C56.41 96.12 56.44 96.72 56.47 97.31ZM29.45 98.01C29.14 98.37 28.95 98.84 28.95 99.35V111.49C28.95 112.62 29.87 113.53 30.99 113.53H58.57C59.7 113.53 60.61 112.61 60.61 111.49V99.24C60.61 97.94 60.53 96.54 60.44 95.24C60.35 93.91 60.23 92.59 60.08 91.28C59.68 87.85 59.38 85.34 58.42 82.93C57.43 80.46 55.84 78.33 52.89 75.84C52.35 75.38 51.8 74.92 51.22 74.49C50.61 74.03 49.95 73.59 49.21 73.18C48.01 72.53 46.89 71.94 45.87 71.4C41.67 69.2 39.37 68 33.96 62.88C33.92 62.84 33.87 62.8 33.83 62.77L28.61 58.16C25.42 54.43 22.3 53.19 19.91 53.45H19.9C18.73 53.57 17.73 54.03 16.93 54.73L11.66 42.17H11.65C11.57 41.99 11.47 41.82 11.34 41.66C9.88003 39.91 8.03003 38.89 6.26003 38.71C5.05003 38.59 3.88003 38.85 2.86003 39.51C1.89003 40.14 1.09003 41.12 0.590029 42.47C-0.289971 44.82 -0.269971 48.47 1.45003 53.52L4.05003 62.67C4.43003 63.99 4.76003 65.26 5.07003 66.38C6.77003 72.73 7.37003 74.98 13.04 81.5C17.53 86.67 21.92 90.83 26.14 94.81C27.23 95.89 28.33 96.93 29.45 98.01ZM33.35 101.39C33.62 101.45 33.9 101.45 34.18 101.39H56.52V109.45H33.03V101.39H33.35ZM93.43 98.01C93.74 98.37 93.93 98.84 93.93 99.35V111.49C93.93 112.62 93.02 113.53 91.89 113.53H64.32C63.19 113.53 62.28 112.61 62.28 111.49V99.24C62.28 99.17 62.28 99.09 62.29 99.02C62.32 97.71 62.37 96.44 62.45 95.24C62.54 93.91 62.66 92.59 62.81 91.28C63.21 87.85 63.51 85.34 64.47 82.93C65.46 80.46 67.05 78.33 70 75.84C70.54 75.38 71.09 74.92 71.67 74.49C72.28 74.03 72.94 73.59 73.68 73.18C74.88 72.53 76 71.94 77.02 71.4C81.22 69.2 83.52 68 88.93 62.88C88.97 62.84 89.02 62.8 89.06 62.77L94.28 58.16C97.47 54.43 100.59 53.19 102.98 53.45H102.99C104.16 53.57 105.16 54.03 105.96 54.73L111.23 42.17H111.24C111.32 41.99 111.42 41.82 111.55 41.66C113.01 39.91 114.86 38.89 116.63 38.71C117.84 38.59 119.01 38.85 120.03 39.51C121 40.14 121.8 41.12 122.3 42.47C123.18 44.82 123.16 48.47 121.44 53.52L118.84 62.67C118.46 63.99 118.13 65.26 117.82 66.38C116.12 72.73 115.52 74.98 109.85 81.5C105.36 86.67 100.97 90.83 96.75 94.81C95.65 95.89 94.55 96.93 93.43 98.01ZM89.53 101.39C89.26 101.45 88.98 101.45 88.7 101.39H66.36V109.45H89.85V101.39H89.53ZM51.42 35.02H71.18V39.68H51.42V35.02ZM37.27 24.16C42.31 24.32 45.39 26.43 46.18 30.82H37.27V24.16ZM84.98 24.16C79.95 24.32 76.87 26.43 76.07 30.82H84.98V24.16ZM40.75 15.25H82.13L80.36 7.07C79.87 4.83 78.48 2.89 76.18 2.89H47.56C45.26 2.89 44.08 4.88 43.38 7.07L40.75 15.25Z" fill="#949AFF"/>
</g>
<defs>
<clipPath id="clip0_6427_4">
<rect width="122.88" height="113.53" fill="white"/>
</clipPath>
</defs>
</svg>
