<svg width="123" height="123" viewBox="0 0 123 123" fill="none" xmlns="http://www.w3.org/2000/svg">
<g clip-path="url(#clip0_5608_4)">
<path d="M61.44 -1.16604e-05C75.6599 -0.00407635 89.4413 4.92284 100.436 13.9411C111.43 22.9595 118.957 35.5111 121.734 49.4572C124.511 63.4034 122.366 77.8809 115.665 90.4229C108.964 102.965 98.1214 112.795 84.9846 118.239C71.8478 123.682 57.2299 124.402 43.6219 120.275C30.014 116.149 18.2579 107.431 10.3572 95.6079C2.4564 83.7849 -1.10019 69.588 0.293442 55.4365C1.68708 41.2851 7.94471 28.0547 18 18C23.6974 12.2852 30.4682 7.75291 37.9232 4.66382C45.3782 1.57473 53.3703 -0.0102592 61.44 -1.16604e-05ZM64.6 55.18C65.814 55.7935 66.8246 56.7451 67.51 57.92H77.41C77.2273 57.4826 77.1626 57.0049 77.2222 56.5346C77.2819 56.0643 77.4639 55.6179 77.75 55.24C78.1845 54.6835 78.821 54.3209 79.5213 54.231C80.2216 54.1411 80.9291 54.3312 81.49 54.76L87.38 59.31C87.6933 59.5583 87.9461 59.8746 88.1193 60.2349C88.2925 60.5952 88.3817 60.9902 88.38 61.39V61.45C88.3825 61.8513 88.2937 62.248 88.1205 62.6101C87.9473 62.9721 87.6941 63.2901 87.38 63.54L81.49 68.08C81.0284 68.4263 80.4668 68.6131 79.8897 68.6122C79.3127 68.6113 78.7516 68.4228 78.2911 68.0752C77.8305 67.7275 77.4955 67.2395 77.3366 66.6848C77.1777 66.1301 77.2034 65.5388 77.41 65H67.5C66.9625 65.8945 66.2318 66.6575 65.3614 67.2332C64.491 67.8088 63.5029 68.1826 62.4694 68.3272C61.4359 68.4717 60.3832 68.3833 59.3883 68.0685C58.3933 67.7537 57.4814 67.2205 56.7191 66.5078C55.9568 65.7951 55.3636 64.9209 54.9827 63.9494C54.6019 62.9778 54.4431 61.9333 54.5179 60.8925C54.5928 59.8516 54.8994 58.8407 55.4154 57.9336C55.9313 57.0265 56.6436 56.2463 57.5 55.65L57.58 42.11C57.0358 42.3345 56.4325 42.3721 55.8647 42.217C55.2968 42.0619 54.7964 41.7228 54.4419 41.2528C54.0875 40.7828 53.8989 40.2085 53.9058 39.6199C53.9127 39.0313 54.1146 38.4615 54.48 38L59.15 32.22C59.3913 31.9186 59.695 31.6732 60.0403 31.5005C60.3855 31.3279 60.7642 31.2322 61.15 31.22H61.21C61.6366 31.2096 62.0593 31.3024 62.4423 31.4904C62.8254 31.6784 63.1573 31.9562 63.41 32.3L67.82 38.3C68.1643 38.7656 68.3473 39.3308 68.3411 39.9098C68.335 40.4888 68.1401 41.05 67.786 41.5082C67.4319 41.9664 66.938 42.2965 66.3792 42.4484C65.8204 42.6003 65.2273 42.5658 64.69 42.35L64.6 55.18ZM86.6 99.12C86.8678 99.7871 86.8872 100.528 86.6545 101.208C86.4219 101.889 85.9528 102.463 85.3326 102.826C84.7124 103.189 83.9823 103.318 83.2752 103.188C82.5681 103.059 81.931 102.68 81.48 102.12L79.27 98.3C79.0022 97.6329 78.9828 96.8918 79.2154 96.2116C79.4481 95.5314 79.9172 94.9574 80.5374 94.594C81.1576 94.2305 81.8877 94.1019 82.5948 94.2315C83.3019 94.3611 83.9389 94.7402 84.39 95.3L86.6 99.13V99.12ZM36.27 23.75C36.0341 23.0878 36.0383 22.3638 36.2818 21.7043C36.5252 21.0448 36.9926 20.4918 37.6022 20.1418C38.2118 19.7917 38.925 19.6668 39.6173 19.789C40.3096 19.9111 40.937 20.2725 41.39 20.81L43.6 24.63C43.883 24.9658 44.0889 25.3597 44.203 25.7839C44.3172 26.208 44.3368 26.652 44.2604 27.0846C44.1841 27.5171 44.0138 27.9276 43.7614 28.2871C43.5091 28.6466 43.1808 28.9462 42.8 29.1649C42.4191 29.3837 41.9948 29.5161 41.5571 29.5528C41.1194 29.5896 40.679 29.5298 40.267 29.3777C39.855 29.2255 39.4814 28.9848 39.1726 28.6724C38.8638 28.3601 38.6274 27.9837 38.48 27.57L36.27 23.75ZM102.07 81.49C102.484 81.6374 102.86 81.8738 103.172 82.1826C103.485 82.4914 103.726 82.865 103.878 83.277C104.03 83.689 104.09 84.1294 104.053 84.5671C104.016 85.0048 103.884 85.4291 103.665 85.8099C103.446 86.1908 103.147 86.5191 102.787 86.7714C102.428 87.0238 102.017 87.1941 101.585 87.2704C101.152 87.3467 100.708 87.3271 100.284 87.213C99.8597 87.0989 99.4658 86.893 99.13 86.61L95.31 84.4C94.7725 83.947 94.4111 83.3195 94.289 82.6273C94.1668 81.935 94.2917 81.2218 94.6418 80.6122C94.9918 80.0025 95.5448 79.5352 96.2043 79.2917C96.8638 79.0483 97.5878 79.0441 98.25 79.28L102.07 81.49ZM20.8 41.39C20.3996 41.2293 20.0386 40.9841 19.7416 40.6711C19.4446 40.3582 19.2186 39.9849 19.079 39.5767C18.9394 39.1685 18.8895 38.735 18.9327 38.3057C18.9759 37.8764 19.1111 37.4615 19.3292 37.0893C19.5473 36.7171 19.8432 36.3963 20.1965 36.1487C20.5499 35.9012 20.9525 35.7329 21.3769 35.6551C21.8012 35.5773 22.2374 35.592 22.6555 35.6981C23.0737 35.8042 23.4641 35.9993 23.8 36.27L27.63 38.48C28.1897 38.931 28.5689 39.5681 28.6985 40.2752C28.8281 40.9823 28.6994 41.7124 28.336 42.3326C27.9726 42.9528 27.3986 43.4219 26.7184 43.6545C26.0382 43.8872 25.2971 43.8678 24.63 43.6L20.8 41.39ZM106.66 58.47C107.368 58.5791 108.014 58.9381 108.48 59.4819C108.947 60.0257 109.203 60.7185 109.203 61.435C109.203 62.1515 108.947 62.8443 108.48 63.3881C108.014 63.9319 107.368 64.2909 106.66 64.4H102.24C101.532 64.2909 100.886 63.9319 100.42 63.3881C99.9533 62.8443 99.6969 62.1515 99.6969 61.435C99.6969 60.7185 99.9533 60.0257 100.42 59.4819C100.886 58.9381 101.532 58.5791 102.24 58.47H106.66ZM16.22 64.41C15.7924 64.4759 15.3557 64.4485 14.9397 64.3298C14.5237 64.2111 14.1383 64.0038 13.81 63.7221C13.4816 63.4405 13.218 63.0912 13.0373 62.6981C12.8566 62.3051 12.7631 61.8776 12.7631 61.445C12.7631 61.0124 12.8566 60.5849 13.0373 60.1919C13.218 59.7988 13.4816 59.4495 13.81 59.1678C14.1383 58.8862 14.5237 58.6789 14.9397 58.5602C15.3557 58.4415 15.7924 58.4141 16.22 58.48H20.64C21.3481 58.5891 21.9938 58.9481 22.4602 59.4919C22.9267 60.0357 23.1831 60.7285 23.1831 61.445C23.1831 62.1615 22.9267 62.8543 22.4602 63.3981C21.9938 63.9419 21.3481 64.3009 20.64 64.41H16.22ZM99.13 36.27C99.7922 36.0341 100.516 36.0383 101.176 36.2817C101.835 36.5252 102.388 36.9926 102.738 37.6022C103.088 38.2118 103.213 38.925 103.091 39.6173C102.969 40.3095 102.608 40.937 102.07 41.39L98.25 43.6C97.5878 43.8359 96.8638 43.8317 96.2043 43.5882C95.5448 43.3447 94.9918 42.8774 94.6418 42.2678C94.2917 41.6582 94.1668 40.945 94.289 40.2527C94.4111 39.5604 94.7725 38.933 95.31 38.48L99.13 36.27ZM23.75 86.61C23.4142 86.893 23.0203 87.0989 22.5961 87.213C22.172 87.3271 21.728 87.3467 21.2954 87.2704C20.8629 87.1941 20.4524 87.0238 20.0929 86.7714C19.7334 86.5191 19.4338 86.1908 19.215 85.8099C18.9963 85.4291 18.8639 85.0048 18.8272 84.5671C18.7904 84.1294 18.8502 83.689 19.0023 83.277C19.1544 82.865 19.3952 82.4914 19.7075 82.1826C20.0199 81.8738 20.3962 81.6374 20.81 81.49L24.63 79.28C25.2922 79.0441 26.0162 79.0483 26.6757 79.2917C27.3352 79.5352 27.8882 80.0025 28.2382 80.6122C28.5883 81.2218 28.7131 81.935 28.591 82.6273C28.4689 83.3195 28.1075 83.947 27.57 84.4L23.75 86.61ZM81.49 20.81C81.943 20.2725 82.5704 19.9111 83.2627 19.789C83.955 19.6668 84.6682 19.7917 85.2778 20.1418C85.8874 20.4918 86.3548 21.0448 86.5982 21.7043C86.8417 22.3638 86.8459 23.0878 86.61 23.75L84.4 27.57C84.2526 27.9837 84.0162 28.3601 83.7074 28.6724C83.3986 28.9848 83.025 29.2255 82.613 29.3777C82.201 29.5298 81.7605 29.5896 81.3229 29.5528C80.8852 29.5161 80.4609 29.3837 80.08 29.1649C79.6991 28.9462 79.3709 28.6466 79.1186 28.2871C78.8662 27.9276 78.6959 27.5171 78.6195 27.0846C78.5432 26.652 78.5628 26.208 78.677 25.7839C78.7911 25.3597 78.9969 24.9658 79.28 24.63L81.49 20.81ZM41.39 102.08C40.9389 102.64 40.3019 103.019 39.5948 103.148C38.8877 103.278 38.1576 103.149 37.5374 102.786C36.9172 102.423 36.4481 101.849 36.2154 101.168C35.9828 100.488 36.0022 99.7471 36.27 99.08L38.48 95.25C38.931 94.6902 39.5681 94.3111 40.2752 94.1815C40.9823 94.0519 41.7124 94.1805 42.3326 94.544C42.9528 94.9074 43.4219 95.4814 43.6545 96.1616C43.8872 96.8418 43.8678 97.5829 43.6 98.25L41.39 102.07V102.08ZM58.47 16.22C58.5791 15.5119 58.9381 14.8662 59.4819 14.3998C60.0257 13.9333 60.7185 13.6769 61.435 13.6769C62.1515 13.6769 62.8443 13.9333 63.3881 14.3998C63.9319 14.8662 64.2909 15.5119 64.4 16.22V20.64C64.2909 21.3481 63.9319 21.9938 63.3881 22.4602C62.8443 22.9267 62.1515 23.1831 61.435 23.1831C60.7185 23.1831 60.0257 22.9267 59.4819 22.4602C58.9381 21.9938 58.5791 21.3481 58.47 20.64V16.22ZM64.4 106.66C64.4659 107.088 64.4385 107.524 64.3198 107.94C64.2011 108.356 63.9938 108.742 63.7121 109.07C63.4305 109.398 63.0812 109.662 62.6881 109.843C62.2951 110.023 61.8676 110.117 61.435 110.117C61.0024 110.117 60.5749 110.023 60.1819 109.843C59.7888 109.662 59.4395 109.398 59.1579 109.07C58.8762 108.742 58.6689 108.356 58.5502 107.94C58.4315 107.524 58.4041 107.088 58.47 106.66V102.24C58.5791 101.532 58.9381 100.886 59.4819 100.42C60.0257 99.9533 60.7185 99.6969 61.435 99.6969C62.1515 99.6969 62.8443 99.9533 63.3881 100.42C63.9319 100.886 64.2909 101.532 64.4 102.24V106.66ZM100 22.89C91.0752 13.9811 79.3376 8.44213 66.787 7.21672C54.2364 5.99132 41.6491 9.15529 31.1696 16.1696C20.6901 23.1839 12.9667 33.6146 9.31525 45.6847C5.66378 57.7548 6.31012 70.7176 11.1441 82.3646C15.9782 94.0116 24.7008 103.622 35.8261 109.559C46.9514 115.496 59.791 117.393 72.1574 114.925C84.5239 112.457 95.6523 105.778 103.647 96.0254C111.641 86.2729 116.007 74.0503 116 61.44C116.004 54.2772 114.592 47.1841 111.847 40.5685C109.101 33.9528 105.075 27.9449 100 22.89Z" fill="#949AFF"/>
</g>
<defs>
<clipPath id="clip0_5608_4">
<rect width="122.88" height="122.88" fill="white"/>
</clipPath>
</defs>
</svg>
