<svg width="512" height="512" viewBox="0 0 512 512" fill="none" xmlns="http://www.w3.org/2000/svg">
<g clip-path="url(#clip0_6454_11)">
<path fill-rule="evenodd" clip-rule="evenodd" d="M256 59.55C364.5 59.55 452.45 147.51 452.45 256C452.45 364.49 364.5 452.45 256 452.45C147.51 452.45 59.55 364.49 59.55 256C59.55 147.51 147.51 59.55 256 59.55ZM256 0C326.68 0 390.69 28.66 437.02 74.98C483.34 121.31 512 185.31 512 256C512 326.69 483.34 390.7 437.02 437.02C390.7 483.34 326.69 512 256 512C185.31 512 121.31 483.34 74.98 437.02C28.66 390.69 0 326.68 0 256C0 185.31 28.66 121.31 74.98 74.98C121.31 28.66 185.31 0 256 0ZM419.28 92.72C377.49 50.94 319.76 25.09 256 25.09C192.23 25.09 134.5 50.94 92.72 92.72C50.94 134.5 25.09 192.23 25.09 256C25.09 319.76 50.94 377.49 92.72 419.28C134.5 461.06 192.23 486.91 256 486.91C319.77 486.91 377.5 461.06 419.28 419.28C461.06 377.5 486.91 319.77 486.91 256C486.91 192.23 461.06 134.5 419.28 92.72ZM286.15 218.77C285.56 212.07 282.87 206.91 278.09 203.16C274.78 200.57 270.46 198.87 265.17 198.08V236.93L274.81 239.11C283.98 241.12 292.12 243.76 299.2 247.09C306.24 250.42 312.17 254.42 316.99 259.03C321.81 263.59 325.47 268.92 327.94 274.9C330.42 280.91 331.7 287.65 331.78 295.06C331.7 306.83 328.72 316.9 322.87 325.34C316.99 333.75 308.54 340.23 297.54 344.71C288.36 348.46 277.56 350.63 265.17 351.23V372.3H250.24V351.22C237.81 350.58 226.76 348.32 217.11 344.41C205.51 339.76 196.51 332.68 190.11 323.17C183.67 313.66 180.39 301.63 180.21 287.09H223.29C223.63 293.06 225.25 298.09 228.06 302.06C230.92 306.07 234.85 309.1 239.83 311.14C243 312.46 246.47 313.35 250.24 313.83V272.83L236.89 269.73C220.78 266.03 208.11 260.05 198.81 251.78C189.55 243.51 184.95 232.33 184.99 218.21C184.95 206.7 188.06 196.59 194.29 187.93C200.52 179.28 209.13 172.54 220.18 167.68C229.19 163.74 239.2 161.4 250.24 160.67V139.7H265.17V160.64C276.56 161.33 286.66 163.7 295.45 167.72C306.11 172.62 314.34 179.45 320.23 188.23C326.12 197.02 329.1 207.17 329.23 218.77H286.15ZM250.24 198.08C247.64 198.46 245.31 199.04 243.25 199.83C239.37 201.37 236.47 203.46 234.55 206.06C232.59 208.7 231.61 211.73 231.52 215.1C231.43 217.92 231.99 220.35 233.23 222.48C234.46 224.61 236.3 226.45 238.68 228.06C241.08 229.69 243.98 231.09 247.34 232.29C248.28 232.62 249.25 232.94 250.24 233.24V198.08ZM265.17 313.72C267.94 313.31 270.47 312.67 272.76 311.78C277.02 310.16 280.31 307.9 282.61 305C284.92 302.06 286.11 298.73 286.15 294.98C286.11 291.48 285 288.46 282.87 285.94C280.74 283.42 277.49 281.25 273.1 279.41C270.79 278.43 268.14 277.49 265.17 276.59V313.72Z" fill="#858585"/>
</g>
<defs>
<clipPath id="clip0_6454_11">
<rect width="512" height="512" fill="white"/>
</clipPath>
</defs>
</svg>
