<svg width="123" height="115" viewBox="0 0 123 115" fill="none" xmlns="http://www.w3.org/2000/svg">
<g clip-path="url(#clip0_6427_7)">
<path fill-rule="evenodd" clip-rule="evenodd" d="M110.8 107.88V112.36C110.8 113.52 109.86 114.45 108.71 114.45H13.61C12.45 114.45 11.52 113.51 11.52 112.36V107.88V84.2V58.9C9.18 59.8 6.99 59.82 5.17 59.2C3.75 58.72 2.55 57.86 1.67 56.75C0.789998 55.64 0.229998 54.29 0.0599979 52.8C-0.200002 50.49 0.489998 47.88 2.46 45.43C2.56 45.31 2.67 45.19 2.8 45.09L59.85 0.549978C60.59 -0.130022 61.73 -0.200022 62.55 0.439978L119.74 44.9C119.83 44.97 119.91 45.04 119.99 45.13C122.64 47.98 123.3 51.14 122.66 53.81C122.34 55.13 121.71 56.32 120.84 57.29C119.97 58.27 118.86 59.03 117.6 59.48C115.6 60.2 113.22 60.18 110.81 59.04V84.2V107.88H110.8ZM5.57 48.23C4.46 49.68 4.07 51.13 4.2 52.35C4.28 53.05 4.53 53.67 4.93 54.17C5.32 54.66 5.85 55.03 6.49 55.25C7.58 55.62 8.99 55.52 10.6 54.76L60.39 16.88C61.16 16.29 62.21 16.32 62.94 16.89L111.31 54.49C111.33 54.51 111.35 54.53 111.38 54.54C113.15 55.82 114.85 56.02 116.17 55.55C116.78 55.33 117.31 54.97 117.72 54.5C118.14 54.03 118.44 53.47 118.59 52.84C118.92 51.46 118.52 49.76 117.04 48.1L61.27 4.73998L5.57 48.23ZM29.6 75.49H56.3C57.34 75.49 58.19 76.32 58.19 77.34V98.23C58.19 99.25 57.34 100.08 56.3 100.08H29.6C28.56 100.08 27.71 99.25 27.71 98.23V77.34C27.72 76.32 28.56 75.49 29.6 75.49ZM67.73 73.65H92.8C93.92 73.65 94.83 74.59 94.83 75.75V110.27H106.61V56.57C106.61 56.43 106.62 56.3 106.65 56.17L61.64 21.18L15.63 56.19C15.68 56.36 15.7 56.54 15.7 56.73V110.26H65.7V75.74C65.7 74.58 66.61 73.65 67.73 73.65ZM90.77 77.84H69.77V110.22H90.77V77.84ZM54.41 89.63H44.5V96.38H54.41V89.63ZM40.8 89.63H31.49V96.38H40.8V89.63ZM31.49 85.93H40.8V79.19H31.49V85.93ZM44.5 85.93H54.41V79.19H44.5V85.93ZM60.88 36.33C64.43 36.33 67.31 39.21 67.31 42.76C67.31 46.31 64.43 49.19 60.88 49.19C57.33 49.19 54.45 46.31 54.45 42.76C54.45 39.2 57.33 36.33 60.88 36.33Z" fill="#49A760"/>
</g>
<defs>
<clipPath id="clip0_6427_7">
<rect width="122.88" height="114.45" fill="white"/>
</clipPath>
</defs>
</svg>
