<svg width="123" height="102" viewBox="0 0 123 102" fill="none" xmlns="http://www.w3.org/2000/svg">
<g clip-path="url(#clip0_6453_5)">
<path fill-rule="evenodd" clip-rule="evenodd" d="M52.75 37.63C53.55 38.96 53.98 40.39 53.98 41.86C53.98 42.96 53.74 44.02 53.29 45.05C51.32 44.11 49.24 43.37 47.07 42.85C49.63 41.36 51.58 39.58 52.75 37.63ZM39.49 47.25C54.36 47.25 66.41 59.3 66.41 74.17C66.41 89.04 54.36 101.09 39.49 101.09C24.62 101.09 12.57 89.04 12.57 74.17C12.57 59.3 24.63 47.25 39.49 47.25ZM44.58 61.83H47.87C48.27 61.83 48.59 62.14 48.59 62.51C48.59 62.65 48.55 62.78 48.47 62.89L35.14 86.14C35.01 86.37 34.76 86.5 34.51 86.5H31.22C30.82 86.5 30.5 86.19 30.5 85.82C30.5 85.68 30.54 85.55 30.62 85.44L43.96 62.19C44.08 61.96 44.32 61.83 44.58 61.83ZM24.21 68.23C24.21 67.68 24.28 67.13 24.4 66.6C24.53 66.08 24.72 65.56 24.98 65.06C25.25 64.54 25.59 64.07 26 63.67C26.41 63.27 26.88 62.93 27.43 62.66C27.97 62.38 28.55 62.18 29.18 62.04C29.8 61.9 30.47 61.84 31.17 61.84C32.21 61.84 33.16 61.98 34 62.27C34.86 62.56 35.61 63.01 36.24 63.6C36.87 64.19 37.34 64.88 37.66 65.66L37.67 65.7C37.97 66.46 38.12 67.31 38.12 68.24C38.12 69.19 37.97 70.06 37.66 70.83C37.35 71.62 36.87 72.31 36.24 72.9C35.61 73.49 34.86 73.93 34 74.22C33.16 74.51 32.21 74.65 31.17 74.65C30.47 74.65 29.8 74.58 29.18 74.45C28.54 74.31 27.96 74.11 27.43 73.83L27.38 73.8C26.86 73.53 26.4 73.2 26 72.81C25.59 72.41 25.25 71.94 24.98 71.42L24.96 71.38C24.71 70.89 24.53 70.39 24.4 69.87L24.39 69.85C24.27 69.32 24.21 68.78 24.21 68.23ZM30.07 68.26C30.07 68.83 30.12 69.31 30.21 69.7C30.29 70.05 30.41 70.32 30.56 70.52L30.57 70.54C30.63 70.62 30.71 70.68 30.79 70.72C30.89 70.76 31.02 70.79 31.17 70.79C31.44 70.79 31.64 70.71 31.76 70.54L31.77 70.52C31.92 70.32 32.04 70.05 32.12 69.7C32.21 69.31 32.26 68.83 32.26 68.26C32.26 67.7 32.21 67.22 32.12 66.84C32.04 66.49 31.92 66.21 31.76 66C31.7 65.92 31.63 65.86 31.55 65.83C31.45 65.79 31.32 65.76 31.17 65.76C31.01 65.76 30.88 65.78 30.78 65.83C30.69 65.87 30.61 65.93 30.55 66.01C30.4 66.21 30.28 66.49 30.2 66.83L30.19 66.85C30.11 67.23 30.07 67.71 30.07 68.26ZM40.87 80.04C40.87 78.92 41.13 77.85 41.64 76.85C41.9 76.33 42.24 75.87 42.65 75.47C43.06 75.07 43.53 74.73 44.08 74.44L44.12 74.42C44.65 74.15 45.22 73.95 45.84 73.82C46.46 73.68 47.12 73.62 47.83 73.62C49.97 73.62 51.66 74.21 52.91 75.39C53.54 75.98 54.01 76.67 54.33 77.46C54.64 78.23 54.79 79.1 54.79 80.05C54.79 81 54.64 81.86 54.33 82.64C54.02 83.43 53.54 84.12 52.91 84.71C51.66 85.89 49.96 86.48 47.83 86.48C47.13 86.48 46.47 86.41 45.84 86.28C45.21 86.14 44.63 85.94 44.09 85.66H44.08C43.53 85.38 43.06 85.04 42.65 84.64C42.24 84.24 41.9 83.77 41.64 83.26C41.39 82.76 41.19 82.24 41.07 81.71C40.93 81.14 40.87 80.6 40.87 80.04ZM46.72 80.08C46.72 80.65 46.77 81.13 46.86 81.52C46.94 81.87 47.06 82.15 47.21 82.35V82.36C47.27 82.44 47.34 82.5 47.42 82.53C47.52 82.57 47.65 82.6 47.81 82.6C48.09 82.6 48.3 82.51 48.43 82.35L48.45 82.33C48.59 82.13 48.7 81.86 48.78 81.52C48.87 81.13 48.92 80.65 48.92 80.08C48.92 79.01 48.76 78.24 48.43 77.8C48.37 77.72 48.29 77.65 48.2 77.62C48.1 77.57 47.97 77.55 47.81 77.55C47.54 77.55 47.34 77.63 47.22 77.8L47.19 77.84C47.05 78.04 46.94 78.31 46.86 78.64C46.77 79.03 46.72 79.51 46.72 80.08ZM14.13 54.3C5.72 51.9 0 47.23 0 41.86C0 40.39 0.43 38.97 1.23 37.63C4.15 42.52 12.01 46.28 21.74 47.28C18.84 49.2 16.27 51.57 14.13 54.3ZM121.65 58.7C122.45 60.04 122.88 61.46 122.88 62.93C122.88 70.74 110.79 77.08 95.89 77.08C80.99 77.08 68.9 70.74 68.9 62.93C68.9 61.46 69.33 60.04 70.13 58.7C73.56 64.45 83.8 68.62 95.89 68.62C107.98 68.62 118.22 64.45 121.65 58.7ZM99.81 38.01L99.76 34.51C100.55 34.48 101.2 34.24 101.7 33.79C102.21 33.34 102.48 32.8 102.54 32.16C102.6 31.43 102.36 30.79 101.82 30.23C101.27 29.67 100.4 29.34 99.21 29.24C98.1 29.14 97.24 29.32 96.63 29.78C96.03 30.23 95.69 30.86 95.62 31.66C95.53 32.66 95.9 33.6 96.72 34.47L96.06 37.26L86.75 34.65L87.55 25.43L90.81 25.71L90.24 32.29L93.28 33.1C92.96 32.29 92.83 31.48 92.9 30.66C93.03 29.12 93.71 27.85 94.93 26.88C96.15 25.9 97.66 25.49 99.45 25.65C100.95 25.78 102.25 26.33 103.34 27.3C104.84 28.62 105.5 30.33 105.32 32.43C105.17 34.11 104.61 35.44 103.61 36.42C102.62 37.41 101.35 37.94 99.81 38.01ZM95.89 23.96C108.14 23.96 118.07 27.86 118.07 32.66C118.07 37.47 108.14 41.36 95.89 41.36C83.64 41.36 73.71 37.46 73.71 32.66C73.71 27.85 83.64 23.96 95.89 23.96ZM95.89 21.07C110.79 21.07 122.88 27.41 122.88 35.22C122.88 43.03 110.79 49.37 95.89 49.37C80.99 49.37 68.9 43.03 68.9 35.22C68.9 27.41 80.99 21.07 95.89 21.07ZM121.75 44.66C122.49 45.95 122.88 47.31 122.88 48.72C122.88 56.53 110.79 62.87 95.89 62.87C80.99 62.87 68.9 56.54 68.9 48.72C68.9 47.31 69.3 45.94 70.03 44.66C73.36 50.49 83.68 54.74 95.89 54.74C108.1 54.74 118.42 50.49 121.75 44.66ZM36.74 8.39L36.43 11.9L23.18 10.75C24.27 12.14 25.03 13.73 25.45 15.52L22.26 15.24C22.04 14.3 21.56 13.25 20.82 12.11C20.07 10.96 19.16 10.14 18.07 9.64L18.32 6.79L36.74 8.39ZM26.99 2.88C39.24 2.88 49.17 6.78 49.17 11.58C49.17 16.38 39.24 20.28 26.99 20.28C14.74 20.28 4.81 16.38 4.81 11.58C4.81 6.78 14.74 2.88 26.99 2.88ZM26.99 0C41.89 0 53.98 6.33 53.98 14.15C53.98 21.96 41.89 28.3 26.99 28.3C12.09 28.3 0 21.96 0 14.15C0 6.33 12.09 0 26.99 0ZM52.85 23.58C53.59 24.87 53.98 26.23 53.98 27.64C53.98 35.45 41.89 41.79 26.99 41.79C12.09 41.79 0 35.45 0 27.64C0 26.23 0.4 24.87 1.13 23.58C4.46 29.41 14.78 33.67 26.99 33.67C39.2 33.67 49.52 29.41 52.85 23.58ZM8.01 81.01C3.06 78.45 0 74.89 0 70.96C0 69.39 0.49 67.87 1.4 66.46C2.66 68.43 4.72 70.2 7.38 71.67C7.32 72.49 7.29 73.32 7.29 74.16C7.28 76.52 7.53 78.81 8.01 81.01ZM8.23 66.37C3.16 63.8 0 60.19 0 56.2C0 54.7 0.45 53.26 1.27 51.91C3.02 54.79 6.49 57.28 11.05 59.03C9.82 61.33 8.87 63.79 8.23 66.37Z" fill="#858585"/>
</g>
<defs>
<clipPath id="clip0_6453_5">
<rect width="122.88" height="101.08" fill="white"/>
</clipPath>
</defs>
</svg>
