<svg width="110" height="123" viewBox="0 0 110 123" fill="none" xmlns="http://www.w3.org/2000/svg">
<g clip-path="url(#clip0_6438_13)">
<path fill-rule="evenodd" clip-rule="evenodd" d="M82.28 105.33H71.48V90.47H56.14V105.33H44.99L63.63 122.87L82.28 105.33ZM102.4 33.95H83.61C81.63 33.95 78.88 32.89 77.58 31.59C76.28 30.29 75.49 27.94 75.49 25.98V6.95H25.83C25.67 6.95 25.54 7.03 25.46 7.11C25.32 7.2 25.28 7.32 25.28 7.49V95.22C25.28 95.34 25.37 95.51 25.44 95.59C25.53 95.72 25.7 95.75 25.82 95.75H38.78C37.75 97.91 36.99 100.24 36.55 102.66H23.7C22.24 102.66 20.94 102.08 19.97 101.11C19.01 100.15 18.43 98.85 18.43 97.38V5.32C18.43 3.86 19.02 2.56 19.97 1.59C20.94 0.62 22.28 0.04 23.7 0.04H79.01C79.13 0 79.25 0 79.38 0C79.96 0 80.56 0.25 80.97 0.62H81.05C81.14 0.67 81.18 0.71 81.26 0.78L108.53 28.38C108.99 28.84 109.33 29.47 109.33 30.18C109.33 30.39 109.29 30.55 109.25 30.78C109.25 56 109.25 72.17 109.25 97.39C109.25 98.85 108.66 100.16 107.7 101.12C106.73 102.08 105.43 102.67 103.97 102.67H90C89.56 100.24 88.81 97.92 87.77 95.76H101.84C102 95.76 102 95.67 102.09 95.6C102.22 95.51 102.39 95.34 102.39 95.23C102.39 71.78 102.4 57.39 102.4 33.95ZM81.72 25.43V8.12L101.21 27.86H84.15C83.48 27.86 82.89 27.57 82.43 27.15C82.01 26.73 81.72 26.1 81.72 25.43Z" fill="#858585"/>
<path fill-rule="evenodd" clip-rule="evenodd" d="M0 38.51H88.9V81.22H0V38.51Z" fill="#FF0000"/>
<path d="M12.07 48.62H23.84C26.4 48.62 28.32 49.23 29.59 50.44C30.86 51.66 31.5 53.38 31.5 55.62C31.5 57.92 30.81 59.72 29.41 61.02C28.02 62.32 25.9 62.96 23.04 62.96H19.17V71.42H12.06V48.62H12.07ZM19.18 58.34H20.91C22.28 58.34 23.24 58.11 23.78 57.63C24.33 57.16 24.61 56.56 24.61 55.82C24.61 55.1 24.37 54.49 23.89 54C23.42 53.5 22.51 53.25 21.19 53.25H19.17V58.34H19.18ZM34.99 48.62H45.5C47.57 48.62 49.25 48.9 50.52 49.46C51.79 50.02 52.84 50.82 53.68 51.87C54.51 52.92 55.11 54.14 55.49 55.53C55.86 56.92 56.05 58.39 56.05 59.95C56.05 62.39 55.77 64.28 55.21 65.62C54.66 66.96 53.88 68.09 52.89 69C51.9 69.91 50.84 70.51 49.71 70.81C48.16 71.22 46.75 71.43 45.49 71.43H34.99V48.62ZM42.06 53.79V66.24H43.79C45.27 66.24 46.32 66.08 46.95 65.75C47.57 65.43 48.06 64.85 48.42 64.04C48.77 63.23 48.95 61.91 48.95 60.08C48.95 57.66 48.56 56.01 47.77 55.12C46.98 54.23 45.66 53.78 43.83 53.78H42.06V53.79ZM59.49 48.62H76.99V53.52H66.6V57.5H75.47V62.1H66.6V71.42H59.49V48.62Z" fill="white"/>
</g>
<defs>
<clipPath id="clip0_6438_13">
<rect width="109.33" height="122.88" fill="white"/>
</clipPath>
</defs>
</svg>
