<svg width="108" height="122" viewBox="0 0 108 122" fill="none" xmlns="http://www.w3.org/2000/svg">
<g clip-path="url(#clip0_5563_2)">
<path fill-rule="evenodd" clip-rule="evenodd" d="M80.3955 60.7987H95.7735V57.8304C94.8942 54.5833 93.4941 52.382 91.6805 51.0432C89.867 49.7067 87.5158 49.135 84.7561 49.154L21.686 49.1683C20.1329 49.1683 18.8761 47.9128 18.8761 46.3667C18.8761 44.8182 20.1329 43.5651 21.686 43.5651L84.682 43.5723C88.646 43.5342 92.1441 44.4347 95.0161 46.5573C95.2742 46.7479 95.5274 46.948 95.7735 47.1576V45.4734C95.7735 42.8576 94.6912 40.4658 92.9493 38.7291C91.2218 36.9924 88.8276 35.9179 86.1897 35.9179H84.1611L83.9007 35.906L82.9091 39.6129H76.0946L80.1374 24.4924C76.7397 23.5872 74.7135 20.0852 75.6239 16.6975L53.1374 10.6918C52.2271 14.077 48.7171 16.102 45.3242 15.1943L38.7223 39.6129H31.6951L42.3876 0L90.1035 12.7477L85.3988 30.3124H86.1897C90.3592 30.3124 94.1607 32.0253 96.9181 34.7721C99.6802 37.5141 101.393 41.3115 101.393 45.4734V60.9559C103.016 61.2775 104.466 62.078 105.592 63.2001C107.075 64.6795 108 66.7282 108 68.9843V87.4114C108 89.7627 107.035 91.902 105.486 93.4434C104.38 94.5464 102.97 95.354 101.393 95.7232V106.839C101.393 110.999 99.6778 114.794 96.9204 117.543L96.7436 117.705C93.9958 120.356 90.266 122 86.1897 122H15.2036C11.0294 122 7.2231 120.292 4.46575 117.545C1.71319 114.801 0 111.01 0 106.839V45.4734C0 41.2996 1.7108 37.5093 4.46336 34.7649C7.21593 32.0205 11.0198 30.3124 15.2036 30.3124H24.073L24.1112 30.3148L31.1719 4.16903L37.9075 5.96766L28.6535 39.6129H21.6L22.5988 35.9179H15.2036C12.5729 35.9179 10.1764 36.9947 8.4369 38.7267C6.69982 40.4586 5.61982 42.8504 5.61982 45.4734V106.839C5.61982 109.462 6.70221 111.849 8.44168 113.581C10.1812 115.318 12.5801 116.397 15.2036 116.397H86.1897C88.7535 116.397 91.0975 115.372 92.8179 113.717L92.9469 113.579C94.6888 111.844 95.7735 109.452 95.7735 106.839V95.9495H80.3955C75.6454 95.9495 71.3254 94.0104 68.2049 90.8991L67.911 90.5775C64.9577 87.4805 63.137 83.3067 63.137 78.7422V78.0037C63.137 73.2891 65.0796 68.9914 68.2049 65.8682L68.2359 65.8373C71.366 62.7284 75.6717 60.7987 80.3955 60.7987ZM57.5267 38.629C61.6341 39.7249 65.8633 37.2949 66.9624 33.1974C68.0639 29.1022 65.6219 24.8855 61.5146 23.7897C57.4049 22.6938 53.1757 25.1237 52.0765 29.2213C50.9774 33.3165 53.4194 37.5308 57.5267 38.629ZM86.5673 73.6298L86.5816 73.6417C89.1932 76.2527 89.186 80.5003 86.5768 83.1089L86.5649 83.1232C83.9461 85.7271 79.6858 85.7199 77.0671 83.1185L77.0551 83.1066C74.4435 80.4956 74.4507 76.2479 77.0599 73.6369L77.0719 73.625C79.6906 71.0211 83.9509 71.0259 86.5673 73.6298Z" fill="#49A760"/>
</g>
<defs>
<clipPath id="clip0_5563_2">
<rect width="108" height="122" fill="white"/>
</clipPath>
</defs>
</svg>
