<svg width="51" height="52" viewBox="0 0 51 52" fill="none" xmlns="http://www.w3.org/2000/svg">
<g clip-path="url(#clip0_5515_29)">
<path fill-rule="evenodd" clip-rule="evenodd" d="M23.5837 20.2278L22.5008 15.264C26.0753 15.9326 31.3039 21.6836 34.6247 26.237C32.26 27.7392 30.8174 29.9017 30.8174 32.4661C30.8167 32.8305 30.8464 33.1943 30.9063 33.5537C29.2671 32.9784 27.5417 32.6878 25.8046 32.6946C23.5256 32.6659 21.2724 33.1794 19.2308 34.1927C16.6418 35.5511 15.0344 37.7178 15.0344 40.3584C15.0314 41.0799 15.156 41.7962 15.4024 42.4743C15.3559 42.6097 15.3093 42.7493 15.2712 42.8974C15.1175 43.427 15.0378 43.9753 15.0344 44.5267C15.0328 45.2259 15.1516 45.9202 15.3855 46.5791L15.2924 46.8668C15.1267 47.416 15.0398 47.9859 15.0344 48.5595C15.0304 49.7845 15.3928 50.9827 16.075 52H15.7577C10.7322 51.7418 2.96119 51.7503 0.95182 46.5918C-2.34355 38.2467 3.65919 28.3275 9.13314 22.2549C9.83804 21.4728 10.5836 20.7284 11.3667 20.0247C13.3592 18.2728 15.5081 16.2161 18.0674 15.3275L15.5927 19.9401L19.1885 15.1709H21.0836L23.5837 20.2278ZM31.9765 47.5482C32.1668 47.8545 32.2693 48.2073 32.2727 48.568C32.2727 50.4469 29.3665 51.9534 25.7834 51.9534C22.2004 51.9534 19.29 50.43 19.29 48.568C19.2945 48.2075 19.3968 47.855 19.5861 47.5482C20.4322 48.9319 22.8773 49.9349 25.7834 49.9349C28.6896 49.9349 31.1559 48.9319 31.9765 47.5482ZM50.6362 46.3379C50.873 46.719 50.9989 47.1586 51 47.6074C51 49.9095 47.4339 51.7799 43.0429 51.7799C38.6519 51.7799 35.1112 49.8883 35.1112 47.5862C35.1113 47.1374 35.2374 46.6975 35.475 46.3167C36.486 48.0094 39.5022 49.2409 43.064 49.2409C46.6259 49.2409 49.6463 48.0094 50.6785 46.3167L50.6362 46.3379ZM50.6362 41.2936C50.8719 41.6752 50.9978 42.1145 51 42.5631C51 44.8652 47.4339 46.7357 43.0429 46.7357C38.6519 46.7357 35.1112 44.8568 35.1112 42.542C35.1124 42.0932 35.2384 41.6537 35.475 41.2724C36.486 42.9651 39.5022 44.1966 43.064 44.1966C46.6259 44.1966 49.6463 42.9651 50.6785 41.2724L50.6362 41.2936ZM45.9152 30.7819L45.8222 31.8187L41.9219 31.4801C42.2451 31.8937 42.4733 32.3734 42.5903 32.8851L41.6511 32.8004C41.5602 32.4723 41.4174 32.1609 41.2281 31.8779C41.0345 31.5625 40.7539 31.3097 40.4201 31.15L40.4921 30.3037L45.9195 30.7734L45.9152 30.7819ZM43.0429 29.1611C46.6513 29.1611 49.5786 30.3122 49.5786 31.7256C49.5786 33.139 46.6513 34.2773 43.0429 34.2773C39.4345 34.2773 36.5071 33.139 36.5071 31.7383C36.5071 30.3375 39.4345 29.1738 43.0429 29.1738V29.1611ZM43.0429 28.3148C47.4339 28.3148 51 30.1852 51 32.4873C51 34.7894 47.4339 36.6598 43.0429 36.6598C38.6519 36.6598 35.1112 34.7851 35.1112 32.4831C35.1112 30.181 38.673 28.3105 43.064 28.3105L43.0429 28.3148ZM50.6574 36.4017C50.8731 36.7643 50.9898 37.1773 50.9958 37.5993C50.9958 39.9013 47.4297 41.7718 43.0387 41.7718C38.6477 41.7718 35.1112 39.8971 35.1112 37.595C35.1058 37.1736 35.2139 36.7585 35.4242 36.3932C36.4056 38.1113 39.4429 39.3554 43.0387 39.3554C46.6344 39.3554 49.6759 38.0859 50.6531 36.3932L50.6574 36.4017ZM28.127 38.9704L28.0509 39.8167L24.8655 39.5374C25.1288 39.8753 25.3151 40.2667 25.4112 40.6842L24.6455 40.625C24.5719 40.3566 24.4547 40.1021 24.2986 39.8717C24.1389 39.616 23.9101 39.4106 23.6387 39.2793L23.6895 38.5853L28.1185 38.9704H28.127ZM25.8046 37.6627C28.7658 37.6627 31.1389 38.6022 31.1389 39.7786C31.1389 40.9551 28.7489 41.8945 25.8046 41.8945C22.8603 41.8945 20.4702 40.9551 20.4702 39.7786C20.4702 38.6022 22.8434 37.6627 25.8046 37.6627ZM25.8046 36.9687C29.3876 36.9687 32.2938 38.4964 32.2938 40.3753C32.2938 42.2542 29.3876 43.7607 25.8046 43.7607C22.2216 43.7607 19.3111 42.2373 19.3111 40.3753C19.3111 38.5133 22.2004 36.9518 25.8046 36.9518V36.9687ZM32.0188 43.5703C32.1955 43.866 32.2904 44.2034 32.2938 44.5478C32.2938 46.4225 29.3876 47.9332 25.8046 47.9332C22.2216 47.9332 19.3111 46.4056 19.3111 44.5478C19.3139 44.2033 19.4089 43.8657 19.5861 43.5703C20.3856 44.971 22.8646 45.9951 25.8046 45.9951C28.7446 45.9951 31.2193 44.971 32.0188 43.5703ZM17.9109 8.59047C17.141 6.31801 16.4473 4.02016 15.8635 1.69269C18.0463 -0.702497 26.4814 -0.385114 28.9054 1.6546L26.6506 6.99086C27.8605 5.39972 28.2666 4.74802 28.9857 3.86358C29.2838 4.06382 29.5666 4.2859 29.8318 4.52797C30.4706 5.10772 31.0417 5.74672 31.1559 6.64386C31.1916 6.96443 31.1559 7.28894 31.0513 7.59406C30.9467 7.89918 30.7758 8.17732 30.5509 8.40851L25.4196 14.4092C24.7591 14.3036 24.1093 14.1393 23.4779 13.9183C23.7698 13.2285 24.1252 12.471 24.4171 11.8024L22.5388 13.8294C20.8569 13.4067 19.078 13.6239 17.5471 14.4388L12.3228 8.14614C12.0414 7.83764 11.8807 7.43797 11.8701 7.02048C11.8701 5.50551 14.1333 4.19789 15.3178 3.70278L17.9109 8.59047Z" fill="#49A760"/>
</g>
<defs>
<clipPath id="clip0_5515_29">
<rect width="51" height="52" fill="white"/>
</clipPath>
</defs>
</svg>
