<svg width="112" height="123" viewBox="0 0 112 123" fill="none" xmlns="http://www.w3.org/2000/svg">
<g clip-path="url(#clip0_5619_4)">
<path fill-rule="evenodd" clip-rule="evenodd" d="M76.59 59.19H104.33C108.09 59.19 111.17 62.27 111.17 66.03V94.07C111.17 97.83 108.09 100.91 104.33 100.91H76.59C65.12 100.91 55.73 91.52 55.73 80.05C55.73 68.58 65.11 59.19 76.59 59.19ZM10.98 26.25H28.68C28.65 25.75 28.63 25.25 28.63 24.74C28.64 11.08 39.71 0 53.38 0C67.04 0 78.12 11.08 78.12 24.74C78.12 25.24 78.1 25.74 78.08 26.24L84.59 26.23C91.24 26.22 96.68 31.43 96.68 38.08V40.06C99.96 42.23 102.13 45.95 102.13 50.15V54.51H94.45V51.6C94.45 48.47 91.89 45.92 88.77 45.92H18.12V39.59C18.12 38.75 18.81 38.06 19.65 38.06H32.53C31.68 36.74 30.96 35.33 30.37 33.85H12.69C10.49 33.85 8.7 35.65 8.7 37.84V110.48C8.7 112.68 10.5 114.47 12.69 114.47H90.4C92.6 114.47 94.39 112.67 94.39 110.48V105.91H102.27V113.46H102.25C102.22 118.68 96.65 122.89 91.15 122.89H10.95C4.93 122.88 0 117.95 0 111.93V37.23C0 31.19 4.94 26.25 10.98 26.25ZM76.39 33.84C75.8 35.32 75.08 36.73 74.23 38.05H90.03C90.47 38.05 90.9 38.07 91.33 38.12V37.83C91.33 35.63 89.53 33.84 87.34 33.84H76.39ZM55.03 38.06V35.74C56.3 35.69 57.38 35.52 58.26 35.24C59.14 34.95 59.97 34.5 60.76 33.87C61.54 33.23 62.18 32.45 62.69 31.5C63.19 30.56 63.44 29.52 63.44 28.39C63.44 26.46 62.74 24.87 61.34 23.61C60.28 22.68 58.18 21.79 55.03 20.95V16.45C55.57 16.74 55.95 17.02 56.19 17.3C56.42 17.58 56.68 18.09 56.98 18.82L62.78 17.91C62.41 16.25 61.6 14.95 60.38 14C59.15 13.04 57.37 12.5 55.04 12.35V10.82H52.78V12.35C50.23 12.48 48.31 13.17 47.01 14.42C45.72 15.66 45.07 17.2 45.07 19.05C45.07 20.4 45.39 21.54 46.04 22.48C46.69 23.42 47.44 24.1 48.32 24.53C49.2 24.95 50.68 25.46 52.78 26.04V31.54C52.05 31.19 51.53 30.79 51.21 30.34C50.89 29.89 50.64 29.15 50.45 28.13L44.18 28.86C44.37 29.89 44.65 30.77 45.02 31.5C45.39 32.23 45.93 32.91 46.61 33.53C47.3 34.16 48.12 34.66 49.07 35.01C50.02 35.37 51.26 35.61 52.78 35.74V38.06H55.03ZM52.77 16.37C52.1 16.59 51.64 16.86 51.38 17.18C51.12 17.5 50.99 17.88 50.99 18.32C50.99 18.77 51.12 19.17 51.39 19.5C51.66 19.84 52.12 20.12 52.78 20.35V16.37H52.77ZM55.03 31.69C55.91 31.49 56.55 31.16 56.96 30.71C57.37 30.26 57.58 29.75 57.58 29.19C57.58 28.7 57.4 28.25 57.06 27.84C56.71 27.43 56.04 27.05 55.03 26.7V31.69ZM77.64 66.84H102.25V93.28H77.64C70.37 93.28 64.42 87.33 64.42 80.06C64.42 72.78 70.37 66.84 77.64 66.84ZM83.69 75.68C86.18 75.68 88.2 77.7 88.2 80.19C88.2 82.68 86.18 84.7 83.69 84.7C81.2 84.7 79.18 82.68 79.18 80.19C79.18 77.7 81.2 75.68 83.69 75.68Z" fill="white"/>
</g>
<defs>
<clipPath id="clip0_5619_4">
<rect width="111.18" height="122.88" fill="white"/>
</clipPath>
</defs>
</svg>
