<svg width="512" height="367" viewBox="0 0 512 367" fill="none" xmlns="http://www.w3.org/2000/svg">
<g clip-path="url(#clip0_6424_2)">
<path d="M86.43 91.28C96.3 91.28 104.32 99.29 104.32 109.17C104.32 119.05 96.3 127.06 86.43 127.06H61.29C31.91 127.06 12.96 110.11 4.61 88.46C1.55 80.52 0.02 71.92 0 63.35C0 54.8 1.52 46.2 4.58 38.27C12.88 16.77 31.76 0 61.29 0H450.71C480.22 0 499.11 16.8 507.41 38.32C510.48 46.25 512 54.85 512 63.41C511.99 71.98 510.45 80.58 507.39 88.52C499.06 110.14 480.1 127.06 450.71 127.06H418.07C408.19 127.06 400.18 119.05 400.18 109.17C400.18 99.29 408.19 91.28 418.07 91.28H450.71C462.93 91.28 470.75 84.42 474.13 75.66C475.61 71.81 476.36 67.61 476.36 63.41C476.36 59.2 475.63 55.01 474.15 51.18C470.81 42.53 463.03 35.78 450.71 35.78H377.28V232.54H134.72V35.78H61.29C48.95 35.78 41.17 42.51 37.84 51.13C36.37 54.95 35.64 59.14 35.64 63.35C35.64 67.55 36.39 71.75 37.88 75.6C41.27 84.39 49.09 91.28 61.29 91.28H86.43ZM284.98 250.06V288.97H311.54C316 289.16 319.16 290.63 320.99 293.41C325.94 300.83 319.17 308.17 314.48 313.34C301.23 327.95 271.09 354.45 264.52 362.12C259.55 367.62 252.45 367.62 247.48 362.12C240.69 354.2 208.91 326.18 196.25 311.93C191.87 306.99 186.44 300.26 191.01 293.41C192.84 290.63 196 289.16 200.46 288.97H227.02V250.06H284.98ZM340.33 35.78H172.79V154.16C192.52 154.16 208.62 170.26 208.62 189.99H304.5C304.5 170.26 320.59 154.16 340.33 154.16V35.78ZM256 45.62C279.89 45.62 299.26 64.99 299.26 88.88C299.26 112.77 279.89 132.14 256 132.14C232.11 132.14 212.74 112.77 212.74 88.88C212.74 64.99 232.11 45.62 256 45.62Z" fill="white"/>
</g>
<defs>
<clipPath id="clip0_6424_2">
<rect width="512" height="366.25" fill="white"/>
</clipPath>
</defs>
</svg>
