<svg width="15" height="15" viewBox="0 0 15 15" fill="none" xmlns="http://www.w3.org/2000/svg">
<g clip-path="url(#clip0_6307_439)">
<path d="M9.08215 8.14632H14.1392C14.3763 8.14632 14.5917 8.24427 14.7473 8.4024C14.9031 8.56028 14.9999 8.77872 14.9999 9.01932V14.1268C14.9999 14.3671 14.9031 14.5858 14.7473 14.7434C14.5917 14.9016 14.3763 14.9998 14.1392 14.9998H9.08215C8.84509 14.9998 8.62976 14.9016 8.474 14.7434C8.31836 14.5858 8.22156 14.3671 8.22156 14.1268V9.01944C8.22156 8.77884 8.31836 8.56041 8.474 8.40253C8.62976 8.24427 8.84509 8.14632 9.08215 8.14632ZM0.86084 0H5.91772C6.15478 0 6.37024 0.0980724 6.526 0.256202C6.68176 0.414331 6.77844 0.632641 6.77844 0.873241V5.98056C6.77844 6.22116 6.68176 6.43959 6.526 6.59747C6.37024 6.75548 6.15478 6.85368 5.91772 6.85368H0.86084C0.624756 6.85368 0.410156 6.75548 0.254272 6.59747L0.253418 6.59673L0.252563 6.59747C0.0966797 6.43947 0 6.22103 0 5.98044V0.873241C0 0.632641 0.0966797 0.414207 0.252563 0.256202C0.263916 0.244686 0.275879 0.233789 0.287964 0.223759C0.440308 0.0848227 0.641479 0 0.86084 0ZM5.87537 0.915962H0.902954V5.93759H5.87524L5.87537 0.915962ZM9.08215 0H14.1392C14.3763 0 14.5917 0.0980724 14.7473 0.256202C14.9031 0.414207 14.9999 0.632641 14.9999 0.873241V5.98056C14.9999 6.22116 14.9031 6.43959 14.7473 6.59747C14.5917 6.75548 14.3763 6.85368 14.1392 6.85368H9.08215C8.84509 6.85368 8.62976 6.75548 8.474 6.59747C8.31836 6.43959 8.22156 6.22103 8.22156 5.98056V0.873241C8.22156 0.632641 8.31836 0.414207 8.474 0.256202C8.62976 0.0980724 8.84509 0 9.08215 0ZM14.0969 0.915962H9.12451V5.93759H14.0969V0.915962ZM0.86084 8.14632H5.91772C6.15478 8.14632 6.37024 8.24427 6.526 8.4024C6.68176 8.56028 6.77844 8.77872 6.77844 9.01932V14.1268C6.77844 14.3671 6.68176 14.5858 6.526 14.7434C6.37024 14.9016 6.15478 14.9998 5.91772 14.9998H0.86084C0.624756 14.9998 0.410156 14.9016 0.254272 14.7434L0.253418 14.7427L0.252563 14.7434C0.0966797 14.5859 0 14.3672 0 14.1269V9.01944C0 8.77884 0.0966797 8.56041 0.252563 8.40253C0.263916 8.39089 0.275879 8.37999 0.288086 8.36984C0.440308 8.23102 0.641479 8.14632 0.86084 8.14632ZM5.87537 9.06229H0.902954V14.0839H5.87524L5.87537 9.06229ZM14.0969 9.06229H9.12451V14.0839H14.0969V9.06229Z" fill="#FFB426"/>
</g>
<defs>
<clipPath id="clip0_6307_439">
<rect width="15" height="15" fill="white"/>
</clipPath>
</defs>
</svg>
