<svg width="453" height="514" viewBox="0 0 453 514" fill="none" xmlns="http://www.w3.org/2000/svg">
<g clip-path="url(#clip0_6239_50)">
<mask id="mask0_6239_50" style="mask-type:luminance" maskUnits="userSpaceOnUse" x="0" y="0" width="453" height="513">
<path d="M452.5 0.5H0.5V512.61H452.5V0.5Z" fill="white"/>
</mask>
<g mask="url(#mask0_6239_50)">
<path fill-rule="evenodd" clip-rule="evenodd" d="M336.97 255.71H401.33V243.25C397.65 229.62 391.79 220.38 384.2 214.76C376.61 209.15 366.77 206.75 355.22 206.83L91.26 206.89C84.76 206.89 79.5 201.62 79.5 195.13C79.5 188.63 84.76 183.37 91.26 183.37L354.91 183.4C371.5 183.24 386.14 187.02 398.16 195.93C399.24 196.73 400.3 197.57 401.33 198.45V191.38C401.33 180.4 396.8 170.36 389.51 163.07C382.28 155.78 372.26 151.27 361.22 151.27H352.73L351.64 151.22L347.49 166.78H318.97L335.89 103.31C321.67 99.51 313.19 84.81 317 70.59L222.89 45.38C219.08 59.59 204.39 68.09 190.19 64.28L162.56 166.78H133.15L177.9 0.5L377.6 54.01L357.91 127.74H361.22C378.67 127.74 394.58 134.93 406.12 146.46C417.68 157.97 424.85 173.91 424.85 191.38V256.37C431.64 257.72 437.71 261.08 442.42 265.79C448.63 272 452.5 280.6 452.5 290.07V367.42C452.5 377.29 448.46 386.27 441.98 392.74C437.35 397.37 431.45 400.76 424.85 402.31V448.97C424.85 466.43 417.67 482.36 406.13 493.9L405.39 494.58C393.89 505.71 378.28 512.61 361.22 512.61H64.13C46.66 512.61 30.73 505.44 19.19 493.91C7.67 482.39 0.5 466.48 0.5 448.97V191.38C0.5 173.86 7.66 157.95 19.18 146.43C30.7 134.91 46.62 127.74 64.13 127.74H101.25L101.41 127.75L130.96 18L159.15 25.55L120.42 166.78H90.9L95.08 151.27H64.13C53.12 151.27 43.09 155.79 35.81 163.06C28.54 170.33 24.02 180.37 24.02 191.38V448.97C24.02 459.98 28.55 470 35.83 477.27C43.11 484.56 53.15 489.09 64.13 489.09H361.22C371.95 489.09 381.76 484.79 388.96 477.84L389.5 477.26C396.79 469.98 401.33 459.94 401.33 448.97V403.26H336.97C317.09 403.26 299.01 395.12 285.95 382.06L284.72 380.71C272.36 367.71 264.74 350.19 264.74 331.03V327.93C264.74 308.14 272.87 290.1 285.95 276.99L286.08 276.86C299.18 263.81 317.2 255.71 336.97 255.71ZM241.26 162.65C258.45 167.25 276.15 157.05 280.75 139.85C285.36 122.66 275.14 104.96 257.95 100.36C240.75 95.76 223.05 105.96 218.45 123.16C213.85 140.35 224.07 158.04 241.26 162.65ZM362.8 309.57L362.86 309.62C373.79 320.58 373.76 338.41 362.84 349.36L362.79 349.42C351.83 360.35 334 360.32 323.04 349.4L322.99 349.35C312.06 338.39 312.09 320.56 323.01 309.6L323.06 309.55C334.02 298.62 351.85 298.64 362.8 309.57Z" fill="#FFB426"/>
</g>
</g>
<defs>
<clipPath id="clip0_6239_50">
<rect width="452" height="513" fill="white" transform="translate(0.5 0.5)"/>
</clipPath>
</defs>
</svg>
