<svg width="83" height="123" viewBox="0 0 83 123" fill="none" xmlns="http://www.w3.org/2000/svg">
<g clip-path="url(#clip0_6238_20)">
<mask id="mask0_6238_20" style="mask-type:luminance" maskUnits="userSpaceOnUse" x="0" y="0" width="83" height="123">
<path d="M82.86 0H0V122.88H82.86V0Z" fill="white"/>
</mask>
<g mask="url(#mask0_6238_20)">
<path fill-rule="evenodd" clip-rule="evenodd" d="M44.5902 115.61C60.4302 121.69 84.3202 99 82.7902 73.9C65.6702 73.2 51.0202 83.91 44.5902 95.64V73.64C63.4802 72.04 78.3202 56.19 78.3202 36.89C78.3202 16.52 61.8102 0 41.4302 0C21.0602 0 4.54023 16.52 4.54023 36.89C4.54023 56.2 19.3702 72.04 38.2602 73.64V93.18C30.6602 82.24 16.0702 72.75 0.0602301 73.4C-1.39977 97.43 22.2002 119.65 38.2602 116.21V122.86H44.5902V115.61ZM55.4702 26.19L46.3902 27.62C45.9302 26.47 45.5302 25.68 45.1602 25.24C44.7902 24.8 44.2002 24.35 43.3502 23.9V30.94C48.2802 32.26 51.5702 33.65 53.2302 35.1C55.4202 37.07 56.5102 39.55 56.5102 42.58C56.5102 44.34 56.1202 45.97 55.3302 47.44C54.5402 48.92 53.5302 50.15 52.3102 51.15C51.0902 52.14 49.7802 52.85 48.4002 53.3C47.0202 53.75 45.3302 54.01 43.3402 54.09V58.68H39.8002V54.09C37.4102 53.88 35.4802 53.5 33.9902 52.94C32.5102 52.38 31.2202 51.61 30.1402 50.62C29.0702 49.64 28.2302 48.58 27.6502 47.44C27.0702 46.3 26.6302 44.92 26.3402 43.31L36.1602 42.17C36.4502 43.77 36.8502 44.92 37.3502 45.63C37.8402 46.34 38.6602 46.97 39.8002 47.52V38.91C36.5102 38 34.1802 37.21 32.8102 36.55C31.4402 35.89 30.2502 34.81 29.2402 33.34C28.2302 31.87 27.7302 30.08 27.7302 27.97C27.7302 25.08 28.7402 22.66 30.7602 20.72C32.7902 18.78 35.8002 17.69 39.7902 17.49V15.1H43.3302V17.49C46.9702 17.71 49.7502 18.57 51.6802 20.07C53.6202 21.56 54.8902 23.59 55.4702 26.19ZM39.8102 23.78C38.7602 24.12 38.0402 24.54 37.6302 25.04C37.2202 25.54 37.0202 26.14 37.0202 26.82C37.0202 27.53 37.2302 28.15 37.6402 28.67C38.0602 29.2 38.7802 29.64 39.8102 30V23.78ZM43.3502 47.76C44.7302 47.45 45.7402 46.94 46.3802 46.23C47.0202 45.52 47.3402 44.73 47.3402 43.85C47.3402 43.09 47.0702 42.38 46.5302 41.73C45.9902 41.09 44.9302 40.49 43.3602 39.94V47.76H43.3502ZM43.6602 109.94C48.6702 101.53 58.1902 94.83 65.2802 89.34C66.1202 88.69 66.9602 88.04 67.6402 87.51C68.1102 87.15 68.7802 87.23 69.1402 87.69C69.5002 88.16 69.4202 88.83 68.9602 89.19C68.0802 89.88 67.3502 90.45 66.6002 91.03C60.0102 96.13 51.0602 102.39 46.2102 109.93H43.6602V109.94ZM13.2202 86.25C12.7702 85.83 12.7402 85.13 13.1602 84.68C13.5802 84.23 14.2802 84.2 14.7302 84.62C23.3102 92.56 31.4202 99.61 37.0902 109.94H34.5402C29.0102 100.32 21.3002 93.72 13.2202 86.25Z" fill="#FFB426"/>
</g>
</g>
<defs>
<clipPath id="clip0_6238_20">
<rect width="83" height="123" fill="white"/>
</clipPath>
</defs>
</svg>
