<svg width="123" height="117" viewBox="0 0 123 117" fill="none" xmlns="http://www.w3.org/2000/svg">
<g clip-path="url(#clip0_6361_2)">
<path d="M41.68 75.91C48 89.09 67.17 89.56 73.22 75.99C71.57 74.32 70.34 72.53 69.13 70.75C68.93 70.46 68.73 70.17 68.53 69.87C65.61 72.19 62.06 73.67 57.44 73.66C52.46 73.65 48.7 71.74 45.63 68.93C45.45 68.76 45.26 68.59 45.08 68.42C44.64 69.64 44.08 71.11 43.48 72.48C42.9 73.78 42.28 75.02 41.68 75.91ZM94.22 77.04H101.55C102.03 77.04 102.42 77.43 102.42 77.91V86.79H111.3C111.78 86.79 112.17 87.18 112.17 87.66V94.99C112.17 95.47 111.78 95.86 111.3 95.86H102.42V104.74C102.42 105.22 102.03 105.61 101.55 105.61H94.22C93.74 105.61 93.35 105.22 93.35 104.74V95.86H84.47C83.99 95.86 83.6 95.47 83.6 94.99V87.66C83.6 87.18 83.99 86.79 84.47 86.79H93.35V77.91C93.35 77.43 93.74 77.04 94.22 77.04ZM97.97 66.4C104.85 66.4 111.07 69.19 115.58 73.69C120.09 78.2 122.87 84.42 122.87 91.3C122.87 98.18 120.08 104.4 115.58 108.91C111.07 113.42 104.85 116.2 97.97 116.2C91.09 116.2 84.87 113.41 80.36 108.91C75.85 104.4 73.07 98.18 73.07 91.3C73.07 86.32 74.53 81.68 77.05 77.79C76.33 77.48 75.62 77.12 74.85 76.69C71.79 90.87 47.62 94.29 40.16 77.5C34.89 80.15 29.54 82.16 23.42 83.11L26.98 108.8H5.76001C-4.75999 108 1.73001 92.8 4.90001 88.61C6.42001 86.6 8.31001 85.12 10.4 83.95C16.68 80.45 33.03 79.29 39.81 74.56C40.31 73.81 40.85 72.72 41.36 71.54C42.14 69.76 42.85 67.82 43.3 66.5C41.4 64.27 39.78 61.75 38.22 59.26L33.08 51.09C31.2 48.29 30.22 45.72 30.16 43.62C30.13 42.63 30.3 41.73 30.66 40.95C31.04 40.12 31.63 39.43 32.43 38.9C32.8 38.65 33.22 38.44 33.68 38.26C33.35 33.83 33.22 28.24 33.44 23.56C33.55 22.45 33.76 21.34 34.07 20.23C35.38 15.54 38.68 11.76 42.75 9.16001C45 7.73001 47.46 6.65001 50.03 5.92001C51.66 5.46001 48.64 0.240006 50.33 0.070006C58.49 -0.769994 71.69 6.68001 77.39 12.85C80.24 15.94 82.03 20.03 82.42 25.45L82.1 38.79C83.53 39.22 84.44 40.13 84.81 41.59C85.22 43.21 84.77 45.49 83.4 48.61C83.38 48.67 83.35 48.72 83.31 48.78L77.45 58.43C75.3 61.97 73.11 65.53 70.26 68.33C70.52 68.7 70.77 69.07 71.03 69.45C72.19 71.15 73.36 72.85 74.86 74.37C74.91 74.42 74.95 74.47 74.99 74.53C75.88 75.16 76.95 75.73 78.14 76.25C78.82 75.36 79.56 74.51 80.35 73.72C84.87 69.19 91.1 66.4 97.97 66.4ZM36.64 40.62C35.5 40.66 34.64 40.9 34.05 41.3C33.71 41.53 33.47 41.81 33.31 42.16C33.13 42.54 33.05 43 33.07 43.54C33.11 45.1 33.93 47.15 35.52 49.5L35.54 49.53L40.68 57.7C42.74 60.98 44.9 64.32 47.59 66.77C50.17 69.13 53.31 70.73 57.45 70.74C61.94 70.75 65.22 69.09 67.88 66.6C70.65 64.01 72.84 60.45 74.99 56.91L80.78 47.37C81.86 44.91 82.25 43.26 82.01 42.29C81.86 41.71 81.23 41.43 80.15 41.38C79.92 41.37 79.68 41.37 79.44 41.37C79.18 41.38 78.91 41.4 78.63 41.42C78.48 41.43 78.33 41.42 78.18 41.39C77.66 41.42 77.13 41.38 76.59 41.3L78.57 32.52C63.86 34.84 52.85 23.91 37.3 30.33L38.42 40.67C37.79 40.73 37.19 40.71 36.64 40.62ZM112.86 76.42C109.05 72.61 103.79 70.25 97.97 70.25C92.15 70.25 86.89 72.61 83.08 76.42C79.27 80.23 76.91 85.49 76.91 91.31C76.91 97.12 79.27 102.39 83.08 106.2C86.89 110.01 92.15 112.37 97.97 112.37C103.79 112.37 109.05 110.01 112.86 106.2C116.67 102.39 119.03 97.13 119.03 91.31C119.03 85.5 116.67 80.23 112.86 76.42Z" fill="#949AFF"/>
</g>
<defs>
<clipPath id="clip0_6361_2">
<rect width="122.88" height="116.22" fill="white"/>
</clipPath>
</defs>
</svg>
