<svg width="16" height="16" viewBox="0 0 16 16" fill="none" xmlns="http://www.w3.org/2000/svg">
<path d="M3.20399 6L12.796 6L7.99999 11.481L3.20399 6ZM2.45099 6.659L7.24699 12.139C7.34085 12.2464 7.4566 12.3325 7.58648 12.3915C7.71635 12.4505 7.85735 12.481 7.99999 12.481C8.14263 12.481 8.28362 12.4505 8.4135 12.3915C8.54337 12.3325 8.65913 12.2464 8.75299 12.139L13.549 6.66C14.115 6.011 13.655 5 12.796 5L3.20399 5C3.01174 4.99984 2.82353 5.05509 2.66188 5.15914C2.50023 5.26319 2.372 5.41164 2.29254 5.58669C2.21308 5.76175 2.18577 5.956 2.21387 6.14618C2.24197 6.33636 2.3243 6.5144 2.45099 6.659Z" fill="#949AFF"/>
</svg>
