<svg width="79" height="79" viewBox="0 0 79 79" fill="none" xmlns="http://www.w3.org/2000/svg">
<g clip-path="url(#clip0_6350_41)">
<path d="M39.4997 0C50.4071 0 60.282 4.42125 67.4304 11.5697C74.5788 18.7175 79 28.5931 79 39.5C79 50.4081 74.5788 60.2825 67.4304 67.4303C60.282 74.5788 50.4071 79 39.4997 79C28.5923 79 18.7173 74.5788 11.5696 67.4303C4.42121 60.2825 0 50.4075 0 39.4994C0 28.5925 4.42121 18.7169 11.5696 11.5691C18.7173 4.42125 28.5923 0 39.4997 0ZM51.5347 24.0247C52.3712 23.1876 53.7283 23.1876 54.5647 24.0247C55.4011 24.8611 55.4011 26.2176 54.5647 27.0547L42.1176 39.5026L54.5647 51.9505C55.4011 52.7869 55.4011 54.1434 54.5647 54.9805C53.7283 55.8169 52.3712 55.8169 51.5347 54.9805L39.0869 42.5326L26.6391 54.9811C25.8027 55.8175 24.4456 55.8175 23.6092 54.9811C22.7727 54.1441 22.7727 52.7875 23.6092 51.9511L36.0576 39.5032L23.6092 27.0547C22.7727 26.2176 22.7727 24.8611 23.6092 24.0247C24.4456 23.1876 25.8027 23.1876 26.6391 24.0247L39.0876 36.4726L51.5347 24.0247ZM64.4004 14.5991C58.028 8.2266 49.2242 4.2856 39.4997 4.2856C29.7752 4.2856 20.972 8.2266 14.5996 14.5991C8.22717 20.9715 4.28556 29.7754 4.28556 39.4994C4.28556 49.2239 8.22717 58.0278 14.5989 64.4003C20.9713 70.7721 29.7746 74.7138 39.499 74.7138C49.2235 74.7138 58.0274 70.7721 64.3998 64.4003C70.7722 58.0278 74.7138 49.2239 74.7138 39.4994C74.7144 29.7754 70.7728 20.9715 64.4004 14.5991Z" fill="#E53B24"/>
</g>
<defs>
<clipPath id="clip0_6350_41">
<rect width="79" height="79" fill="white"/>
</clipPath>
</defs>
</svg>
