<svg width="123" height="51" viewBox="0 0 123 51" fill="none" xmlns="http://www.w3.org/2000/svg">
<g clip-path="url(#clip0_6362_5)">
<path d="M54.86 -3.15672e-06H118.55C119.149 -0.00655379 119.743 0.112558 120.294 0.349655C120.844 0.586751 121.339 0.93657 121.746 1.37656C122.153 1.81655 122.463 2.33695 122.657 2.9042C122.851 3.47146 122.923 4.07298 122.87 4.67L119.78 45.45C119.709 46.4437 119.342 47.3934 118.728 48.1773C118.113 48.9613 117.278 49.5437 116.33 49.85C115.825 50.0252 115.295 50.1164 114.76 50.12H51.07C50.4707 50.1265 49.8766 50.0074 49.3261 49.7703C48.7756 49.5332 48.2809 49.1834 47.8739 48.7434C47.4669 48.3034 47.1566 47.783 46.963 47.2158C46.7694 46.6485 46.6969 46.047 46.75 45.45L49.84 4.67C49.9529 3.4128 50.5253 2.24135 51.4478 1.37976C52.3703 0.518173 53.578 0.0269249 54.84 -3.15672e-06H54.86ZM39.2 6V11.24H2.62C1.92513 11.24 1.25873 10.964 0.76738 10.4726C0.276035 9.98127 0 9.31486 0 8.62C0 7.92513 0.276035 7.25872 0.76738 6.76738C1.25873 6.27603 1.92513 6 2.62 6H39.2ZM36.2 38.88V44.11H21.91C21.553 44.1321 21.1952 44.0808 20.8588 43.9594C20.5223 43.838 20.2143 43.649 19.9537 43.404C19.6931 43.159 19.4854 42.8632 19.3434 42.5349C19.2015 42.2066 19.1282 41.8527 19.1282 41.495C19.1282 41.1373 19.2015 40.7834 19.3434 40.4551C19.4854 40.1268 19.6931 39.831 19.9537 39.586C20.2143 39.341 20.5223 39.152 20.8588 39.0306C21.1952 38.9092 21.553 38.8579 21.91 38.88H36.2ZM37.7 22.44V27.67H11.47C11.113 27.6921 10.7552 27.6408 10.4188 27.5194C10.0823 27.398 9.77432 27.209 9.51371 26.964C9.25309 26.719 9.0454 26.4232 8.90343 26.0949C8.76145 25.7666 8.68821 25.4127 8.68821 25.055C8.68821 24.6973 8.76145 24.3434 8.90343 24.0151C9.0454 23.6868 9.25309 23.391 9.51371 23.146C9.77432 22.901 10.0823 22.712 10.4188 22.5906C10.7552 22.4692 11.113 22.4179 11.47 22.44H37.7ZM51.22 42.44L73.65 22.88L53.89 7.21L51.23 42.46L51.22 42.44ZM76.77 25.55L53.57 45.87H112.76L93.6 25.57L86.27 31.44C85.8771 31.752 85.3916 31.9244 84.89 31.93C84.4077 31.9376 83.9389 31.7707 83.57 31.46L76.77 25.55ZM97.06 22.83L115.75 42.6L118.44 7L97.06 22.83ZM57.2 4.25L85.2 27.07L115.39 4.25H57.2Z" fill="#949AFF"/>
</g>
<defs>
<clipPath id="clip0_6362_5">
<rect width="122.88" height="50.12" fill="white"/>
</clipPath>
</defs>
</svg>
