<svg width="123" height="123" viewBox="0 0 123 123" fill="none" xmlns="http://www.w3.org/2000/svg">
<g clip-path="url(#clip0_6368_2)">
<path d="M59.815 5.136C58.58 5.136 57.45 5.347 56.431 5.769C55.405 6.194 54.461 6.837 53.604 7.701L53.6 7.706L53.605 7.711C52.718 8.599 52.062 9.542 51.641 10.54C51.224 11.53 51.014 12.629 51.014 13.838C51.014 15.066 51.227 16.187 51.65 17.202C52.074 18.22 52.727 19.169 53.606 20.048C53.648 20.09 53.689 20.134 53.728 20.178C54.556 20.985 55.462 21.594 56.441 22.002C57.461 22.427 58.587 22.64 59.817 22.64C61.052 22.64 62.175 22.427 63.187 22.003C64.201 21.579 65.133 20.933 65.984 20.069C66.838 19.203 67.473 18.255 67.893 17.227C68.311 16.202 68.519 15.072 68.519 13.838C68.519 12.624 68.314 11.518 67.903 10.52C67.486 9.509 66.847 8.567 65.984 7.691C65.135 6.829 64.204 6.188 63.187 5.765C62.177 5.346 61.054 5.136 59.815 5.136ZM54.465 1.034C56.13 0.344 57.917 0 59.815 0C61.72 0 63.499 0.342 65.152 1.03C66.798 1.715 68.292 2.738 69.634 4.099C70.961 5.447 71.961 6.937 72.635 8.573C73.315 10.221 73.654 11.975 73.654 13.837C73.654 15.731 73.319 17.502 72.646 19.151C71.974 20.798 70.971 22.301 69.634 23.658C68.294 25.018 66.801 26.045 65.152 26.736C63.502 27.428 61.723 27.775 59.815 27.775C57.917 27.775 56.133 27.427 54.473 26.735C52.881 26.072 51.428 25.096 50.119 23.812C50.069 23.77 50.02 23.724 49.973 23.677C48.626 22.33 47.605 20.826 46.913 19.166C46.223 17.508 45.876 15.731 45.876 13.835C45.876 11.968 46.227 10.206 46.925 8.551C47.62 6.904 48.637 5.413 49.973 4.077L49.978 4.082C51.322 2.732 52.821 1.716 54.465 1.034ZM24.407 21.61C23.473 21.61 22.619 21.772 21.845 22.095C21.055 22.425 20.321 22.927 19.642 23.6C18.973 24.269 18.473 25.001 18.147 25.796C17.824 26.581 17.662 27.468 17.662 28.456C17.662 29.435 17.825 30.317 18.148 31.102C18.474 31.894 18.973 32.625 19.642 33.294C20.32 33.967 21.055 34.469 21.845 34.799C22.619 35.122 23.472 35.284 24.407 35.284C25.386 35.284 26.269 35.121 27.054 34.798C27.846 34.472 28.577 33.973 29.246 33.304L29.256 33.294C29.93 32.627 30.432 31.893 30.762 31.097C31.089 30.309 31.252 29.428 31.252 28.456C31.252 27.468 31.089 26.58 30.763 25.791C30.437 25.002 29.934 24.271 29.255 23.599L29.245 23.589C28.576 22.92 27.845 22.422 27.053 22.095C26.27 21.773 25.386 21.61 24.407 21.61ZM19.879 17.36C21.293 16.77 22.803 16.473 24.407 16.473C26.034 16.473 27.567 16.77 29 17.361C30.425 17.948 31.714 18.818 32.866 19.966L32.868 19.968C34.029 21.117 34.906 22.41 35.499 23.845C36.093 25.281 36.39 26.818 36.39 28.456C36.39 30.093 36.093 31.63 35.498 33.063C34.909 34.483 34.032 35.772 32.868 36.925C31.716 38.075 30.426 38.946 29 39.533C27.567 40.123 26.035 40.42 24.407 40.42C22.803 40.42 21.293 40.124 19.879 39.533C18.476 38.947 17.192 38.077 16.031 36.925C14.876 35.771 14.002 34.477 13.413 33.047C12.822 31.614 12.525 30.082 12.525 28.455C12.525 26.82 12.822 25.284 13.412 23.849C14.001 22.417 14.874 21.123 16.031 19.967C17.192 18.816 18.476 17.946 19.879 17.36ZM10.01 58.65C9.325 58.65 8.71 58.764 8.169 58.992C7.613 59.226 7.09 59.59 6.603 60.084L6.573 60.114C6.079 60.602 5.715 61.126 5.48 61.682C5.251 62.223 5.137 62.837 5.137 63.522C5.137 64.207 5.251 64.821 5.479 65.363C5.716 65.926 6.084 66.458 6.583 66.957L6.593 66.967C7.076 67.45 7.601 67.811 8.164 68.047C8.718 68.278 9.335 68.396 10.01 68.396C10.722 68.396 11.359 68.279 11.918 68.047C12.482 67.813 12.996 67.459 13.458 66.986C13.949 66.484 14.311 65.949 14.543 65.382C14.769 64.832 14.882 64.211 14.882 63.522C14.882 62.833 14.769 62.21 14.542 61.662C14.312 61.102 13.954 60.576 13.468 60.084L13.448 60.063H13.447C12.988 59.587 12.478 59.233 11.923 59.001C11.36 58.768 10.722 58.65 10.01 58.65ZM6.182 54.277C7.39 53.768 8.668 53.513 10.01 53.513C11.391 53.513 12.686 53.764 13.89 54.267C15.094 54.77 16.18 55.518 17.14 56.512C18.08 57.469 18.793 58.538 19.278 59.714C19.772 60.914 20.019 62.184 20.019 63.521C20.019 64.856 19.772 66.125 19.279 67.328C18.793 68.512 18.076 69.589 17.131 70.557C16.17 71.54 15.087 72.282 13.886 72.78C12.682 73.28 11.388 73.531 10.011 73.531C8.664 73.531 7.391 73.279 6.198 72.78C5.019 72.287 3.942 71.555 2.974 70.59L2.972 70.587L2.967 70.582L2.963 70.577C1.996 69.608 1.263 68.531 0.765 67.348C0.254 66.14 0 64.862 0 63.522C0 62.18 0.255 60.903 0.764 59.695C1.263 58.514 1.995 57.44 2.962 56.48C3.923 55.511 4.999 54.776 6.182 54.277ZM24.407 94.219C23.804 94.219 23.253 94.324 22.754 94.533C22.249 94.745 21.771 95.075 21.323 95.523C21.286 95.56 21.248 95.595 21.21 95.629C20.812 96.05 20.516 96.489 20.322 96.948C20.12 97.429 20.018 97.981 20.018 98.605C20.018 99.249 20.122 99.82 20.331 100.321C20.54 100.821 20.86 101.282 21.292 101.703L21.312 101.723C21.758 102.161 22.231 102.484 22.729 102.689C23.223 102.893 23.783 102.995 24.406 102.995C25.059 102.995 25.647 102.891 26.168 102.68C26.69 102.468 27.172 102.147 27.61 101.714L27.62 101.704C28.052 101.283 28.372 100.822 28.581 100.322C28.789 99.822 28.894 99.25 28.894 98.606C28.894 97.998 28.79 97.446 28.581 96.949C28.56 96.9 28.541 96.85 28.523 96.8C28.315 96.362 28.003 95.938 27.589 95.524C27.137 95.071 26.657 94.741 26.153 94.534C25.646 94.324 25.063 94.219 24.407 94.219ZM20.768 89.798C21.904 89.321 23.119 89.082 24.407 89.082C25.709 89.082 26.941 89.321 28.101 89.798C29.263 90.277 30.305 90.975 31.222 91.892C32.07 92.74 32.731 93.685 33.204 94.731C33.245 94.806 33.282 94.883 33.316 94.964C33.792 96.097 34.03 97.31 34.03 98.607C34.03 99.92 33.792 101.147 33.316 102.29C32.839 103.433 32.13 104.461 31.191 105.377C30.263 106.29 29.23 106.977 28.094 107.436C26.944 107.902 25.713 108.133 24.406 108.133C23.135 108.133 21.927 107.898 20.783 107.426C19.662 106.963 18.643 106.283 17.729 105.385L17.721 105.377C16.782 104.461 16.074 103.433 15.597 102.29C15.12 101.147 14.882 99.921 14.882 98.607C14.882 97.326 15.124 96.113 15.607 94.964C16.056 93.898 16.701 92.928 17.545 92.051C17.591 91.996 17.64 91.944 17.691 91.892C18.614 90.97 19.641 90.271 20.768 89.798ZM59.706 107.981C59.024 107.981 58.414 108.094 57.876 108.322C57.317 108.557 56.788 108.926 56.289 109.426L56.279 109.436C55.792 109.923 55.427 110.455 55.186 111.03C55.164 111.083 55.14 111.135 55.114 111.185C54.927 111.689 54.834 112.251 54.834 112.872C54.834 113.554 54.948 114.163 55.175 114.702C55.405 115.249 55.777 115.778 56.289 116.289C56.8 116.801 57.33 117.172 57.876 117.402C58.415 117.63 59.024 117.743 59.706 117.743C61.084 117.743 62.243 117.268 63.171 116.319C63.663 115.815 64.026 115.283 64.257 114.722C64.483 114.175 64.596 113.558 64.596 112.871C64.596 112.181 64.483 111.559 64.257 111.009C64.025 110.444 63.662 109.908 63.171 109.405C62.702 108.926 62.185 108.567 61.62 108.333C61.057 108.099 60.419 107.981 59.706 107.981ZM55.89 103.607C57.095 103.098 58.366 102.844 59.706 102.844C61.086 102.844 62.381 103.095 63.587 103.597C64.789 104.098 65.875 104.843 66.843 105.833C67.789 106.801 68.505 107.878 68.991 109.062C69.485 110.265 69.732 111.535 69.732 112.871C69.732 114.207 69.485 115.472 68.992 116.667C68.505 117.85 67.788 118.923 66.843 119.891C64.896 121.883 62.509 122.879 59.706 122.879C58.365 122.879 57.094 122.625 55.89 122.117C54.694 121.612 53.617 120.88 52.658 119.92C51.698 118.96 50.965 117.884 50.46 116.688C49.952 115.484 49.697 114.212 49.697 112.872C49.697 111.618 49.92 110.42 50.365 109.279C50.389 109.2 50.418 109.122 50.45 109.044C50.942 107.874 51.677 106.798 52.654 105.817L52.657 105.814L52.662 105.809L52.667 105.804C53.636 104.838 54.709 104.105 55.89 103.607ZM94.304 93.37C92.93 93.37 91.784 93.845 90.857 94.794L90.829 94.822C90.352 95.308 90 95.83 89.772 96.382C89.545 96.932 89.432 97.553 89.432 98.241C89.432 98.971 89.545 99.613 89.771 100.165C89.992 100.705 90.347 101.22 90.837 101.71C91.326 102.2 91.841 102.556 92.381 102.776C92.933 103.002 93.573 103.115 94.304 103.115C94.993 103.115 95.615 103.001 96.165 102.775C96.731 102.543 97.267 102.18 97.769 101.69C98.25 101.218 98.609 100.704 98.843 100.144C99.076 99.584 99.194 98.951 99.194 98.241C99.194 96.923 98.713 95.776 97.75 94.824L97.745 94.819L97.74 94.824C97.242 94.326 96.71 93.958 96.146 93.721C95.587 93.487 94.973 93.37 94.304 93.37ZM87.185 91.223C89.133 89.23 91.498 88.234 94.304 88.234C95.66 88.234 96.937 88.485 98.132 88.987C99.318 89.485 100.399 90.22 101.37 91.193L101.366 91.198C103.342 93.155 104.33 95.518 104.33 98.242C104.33 99.623 104.079 100.912 103.577 102.112C103.076 103.312 102.33 104.395 101.341 105.362C100.373 106.308 99.295 107.025 98.112 107.511C96.91 108.004 95.639 108.252 94.304 108.252C92.945 108.252 91.662 108.004 90.454 107.512C89.235 107.013 88.152 106.289 87.205 105.342C86.257 104.394 85.533 103.311 85.035 102.091C84.542 100.883 84.295 99.601 84.295 98.241C84.295 96.905 84.542 95.635 85.036 94.435C85.521 93.257 86.235 92.188 87.176 91.232L87.185 91.223ZM109.297 56.601C108.148 56.601 107.103 56.794 106.165 57.183C105.237 57.567 104.366 58.164 103.555 58.976C102.742 59.788 102.145 60.659 101.761 61.586C101.373 62.524 101.18 63.569 101.18 64.718C101.18 65.852 101.373 66.89 101.762 67.826C102.151 68.762 102.747 69.636 103.555 70.443C104.367 71.255 105.238 71.852 106.165 72.236C107.103 72.624 108.147 72.817 109.297 72.817C110.431 72.817 111.468 72.624 112.405 72.235C113.341 71.847 114.215 71.25 115.021 70.443C115.829 69.635 116.425 68.762 116.813 67.826C117.202 66.889 117.396 65.851 117.396 64.718C117.396 63.57 117.203 62.525 116.814 61.586C116.43 60.659 115.833 59.788 115.021 58.976C114.214 58.169 113.34 57.572 112.405 57.184C111.468 56.795 110.431 56.601 109.297 56.601ZM104.219 52.447C105.805 51.791 107.498 51.464 109.297 51.464C111.095 51.464 112.788 51.791 114.372 52.448C115.946 53.101 117.375 54.066 118.653 55.344C119.927 56.619 120.892 58.052 121.549 59.64C122.205 61.226 122.532 62.92 122.532 64.718C122.532 66.516 122.205 68.21 121.548 69.793C120.896 71.367 119.931 72.796 118.652 74.074C117.373 75.352 115.945 76.317 114.371 76.97C112.787 77.626 111.094 77.953 109.296 77.953C107.497 77.953 105.804 77.626 104.218 76.97C102.63 76.314 101.197 75.349 99.922 74.074C98.644 72.796 97.679 71.367 97.026 69.793C96.369 68.21 96.042 66.516 96.042 64.718C96.042 62.92 96.369 61.227 97.025 59.64C97.682 58.052 98.647 56.619 99.921 55.344C101.197 54.069 102.631 53.104 104.219 52.447ZM94.91 14.762C99.194 14.762 102.878 16.283 105.922 19.326C107.434 20.838 108.574 22.532 109.348 24.412C110.119 26.289 110.503 28.302 110.503 30.456C110.503 32.589 110.118 34.587 109.345 36.447C108.579 38.29 107.437 39.969 105.916 41.48L105.922 41.485C104.417 42.99 102.735 44.127 100.883 44.895C99.026 45.665 97.032 46.05 94.91 46.05C90.606 46.05 86.924 44.529 83.881 41.486C82.374 39.979 81.232 38.294 80.458 36.435C79.687 34.579 79.299 32.586 79.299 30.457C79.299 28.301 79.688 26.288 80.461 24.413C81.232 22.545 82.373 20.855 83.881 19.337L83.886 19.332L83.881 19.327C85.382 17.826 87.067 16.689 88.933 15.917C90.793 15.146 92.786 14.762 94.91 14.762ZM102.29 22.958C100.25 20.918 97.781 19.898 94.91 19.898C93.436 19.898 92.092 20.149 90.879 20.651C89.675 21.149 88.552 21.918 87.513 22.958L87.507 22.953C86.476 23.992 85.704 25.127 85.196 26.358C84.69 27.585 84.435 28.95 84.435 30.456C84.435 31.917 84.689 33.255 85.193 34.468C85.699 35.686 86.473 36.816 87.512 37.854C89.551 39.894 92.021 40.914 94.909 40.914C96.367 40.914 97.704 40.663 98.916 40.161C100.129 39.658 101.254 38.889 102.289 37.855L102.294 37.86L102.299 37.855C103.331 36.83 104.101 35.705 104.61 34.482C105.114 33.267 105.367 31.924 105.367 30.458C105.367 28.95 105.116 27.585 104.612 26.36C104.11 25.138 103.337 24.005 102.29 22.958Z" fill="white"/>
</g>
<defs>
<clipPath id="clip0_6368_2">
<rect width="122.533" height="122.879" fill="white"/>
</clipPath>
</defs>
</svg>
