<svg width="61" height="67" viewBox="0 0 61 67" fill="none" xmlns="http://www.w3.org/2000/svg">
<g clip-path="url(#clip0_6349_39)">
<path fill-rule="evenodd" clip-rule="evenodd" d="M30.3951 0C41.7691 7.20576 52.0449 10.6137 60.8624 9.80915C62.4031 40.9412 50.8995 59.3272 30.5129 67C10.8254 59.8178 -0.819621 42.2233 0.0443278 9.33557C10.396 9.87718 20.5526 7.64141 30.3951 0ZM24.9444 32.9505C25.6352 33.536 26.2867 34.1662 26.8948 34.837C28.8007 31.7705 30.8336 28.9552 32.9791 26.3662C39.0477 19.0414 36.2974 20.453 44.7144 20.453L43.5454 21.752C39.9509 25.7422 38.7387 27.8209 35.7922 32.074C32.8456 36.3323 30.2118 40.7267 27.8674 45.2493L27.1396 46.6556L26.4694 45.2244C25.2337 42.5713 23.7519 40.138 21.9873 37.9624C20.2215 35.7868 18.6794 34.3687 16.2853 32.7268C17.3822 29.1279 22.6039 30.9699 24.9444 32.9505ZM30.4147 5.18585C39.8475 11.1606 48.9019 14.5201 56.2141 13.8516C57.4917 39.6696 47.4188 55.4496 30.5142 61.8128C14.1856 55.8578 3.99624 40.7345 4.71227 13.4604C14.1869 13.9563 22.8696 11.0441 30.4147 5.18585Z" fill="#08CE15"/>
</g>
<defs>
<clipPath id="clip0_6349_39">
<rect width="61" height="67" fill="white"/>
</clipPath>
</defs>
</svg>
