<svg width="512" height="365" viewBox="0 0 512 365" fill="none" xmlns="http://www.w3.org/2000/svg">
<g clip-path="url(#clip0_6370_5)">
<path d="M359.34 124.66C345.78 131.36 333.63 140.02 321.93 149.56L301.8 126.53C316.61 112.79 333.88 102.04 352.44 94.14C314.88 27.6 224.04 10.2 164.14 56.72C142.39 73.56 125.88 98.76 119.53 132.14L117.53 142.57L107.13 144.41C96.94 146.19 87.84 148.65 79.86 151.77C30.06 171.04 16.08 226.47 46.55 268.56C59.59 286.47 76.21 304.73 98.02 307.77H128.51C128.3 310.77 128.19 313.79 128.19 316.84C128.19 324.18 128.81 331.37 130.01 338.37H97.53L95.61 338.2C65.08 334.32 39.99 311.59 21.86 286.48C-20.41 228.28 0.40004 149.83 68.93 123.25C76.08 120.46 83.73 118.13 91.79 116.26C100.94 79.92 120.44 51.94 145.51 32.52C222.7 -27.29 338.58 -1.8 382.79 86.08C389.44 85.03 396.1 84.5 402.71 84.58C501.61 85.31 540.72 211.78 489.4 279.91C468.83 307.2 437.28 330.42 404.79 337.96L401.38 338.37H381.57C383.29 328.266 383.793 317.993 383.07 307.77H399.68C423.83 301.96 449.59 282.09 464.91 261.61C501.37 213.05 475.49 115.56 402.5 115.1C388.24 114.98 373.39 118.43 359.34 124.66ZM234.73 364.92H277.29C287.24 364.92 295.4 356.76 295.4 346.81V288.17H326.44C332.98 287.89 337.62 285.73 340.31 281.65C347.58 270.74 337.65 259.97 330.76 252.38C311.21 230.92 277.54 199.15 267.89 187.79C260.57 179.71 250.17 179.71 242.85 187.79C232.88 199.43 198.01 233.56 179.42 254.43C172.97 261.7 165 271.6 171.7 281.65C174.46 285.73 179.05 287.89 185.59 288.17H216.63V346.81C216.63 356.65 224.78 364.92 234.73 364.92Z" fill="white"/>
</g>
<defs>
<clipPath id="clip0_6370_5">
<rect width="512" height="364.92" fill="white"/>
</clipPath>
</defs>
</svg>
