<svg width="123" height="99" viewBox="0 0 123 99" fill="none" xmlns="http://www.w3.org/2000/svg">
<g clip-path="url(#clip0_6348_36)">
<path d="M58.268 81.725C58.099 81.32 58.015 80.882 58.015 80.416C58.015 79.949 58.099 79.512 58.268 79.106C58.435 78.703 58.686 78.334 59.02 78.001L59.021 78L59.022 77.999C59.355 77.666 59.725 77.414 60.127 77.246C60.533 77.078 60.97 76.993 61.437 76.993C61.907 76.993 62.345 77.078 62.752 77.246C63.149 77.411 63.514 77.656 63.843 77.982C63.849 77.987 63.855 77.993 63.861 77.999C64.195 78.332 64.445 78.701 64.614 79.106C64.783 79.511 64.868 79.949 64.868 80.416C64.868 80.882 64.783 81.319 64.614 81.725C64.446 82.129 64.195 82.498 63.861 82.831C63.526 83.167 63.155 83.421 62.749 83.591C62.344 83.76 61.906 83.846 61.437 83.846C60.971 83.846 60.534 83.76 60.13 83.59C59.734 83.424 59.369 83.177 59.039 82.85C59.033 82.845 59.027 82.839 59.02 82.832C58.687 82.499 58.436 82.13 58.268 81.725ZM63.44 5.113C63.274 4.845 63.06 4.648 62.797 4.52C62.461 4.356 62.008 4.275 61.439 4.275C60.87 4.275 60.418 4.356 60.082 4.52C59.819 4.648 59.604 4.846 59.439 5.113C59.424 5.137 59.409 5.161 59.393 5.184L5.731 89.359C5.429 89.848 5.165 90.416 4.936 91.063C4.693 91.755 4.493 92.529 4.336 93.385C4.313 93.51 4.296 93.631 4.286 93.747H118.593C118.583 93.631 118.567 93.51 118.543 93.385C118.386 92.529 118.187 91.755 117.943 91.063C117.714 90.416 117.45 89.848 117.148 89.359L117.137 89.341L63.458 5.138L63.44 5.113ZM64.651 0.679C65.657 1.168 66.46 1.899 67.064 2.876L120.727 87.051C120.743 87.074 120.758 87.098 120.773 87.122C121.241 87.878 121.638 88.724 121.968 89.661C122.282 90.554 122.537 91.539 122.736 92.617C122.833 93.137 122.88 93.597 122.88 94.002C122.88 94.982 122.64 95.813 122.163 96.49C121.614 97.269 120.836 97.754 119.833 97.939C119.533 97.995 119.243 98.023 118.961 98.023H3.919C3.637 98.023 3.347 97.995 3.047 97.939C2.044 97.753 1.265 97.269 0.717 96.49C0.241 95.813 0 94.982 0 94.002C0 93.598 0.048 93.137 0.145 92.617C0.343 91.539 0.598 90.554 0.913 89.661C1.243 88.723 1.641 87.878 2.108 87.122L2.109 87.123L2.125 87.097L55.805 2.894L55.816 2.876C56.42 1.899 57.223 1.168 58.229 0.679C59.162 0.226 60.231 0 61.44 0C62.649 0 63.718 0.226 64.651 0.679ZM63.563 72.619C63.559 73.424 62.993 73.932 62.268 74.15C62.005 74.229 61.722 74.269 61.441 74.269C61.16 74.269 60.877 74.229 60.613 74.15C59.889 73.932 59.322 73.423 59.318 72.619L56.598 37.061C56.598 37.053 56.597 37.045 56.597 37.037C56.597 36.166 57.894 35.638 59.554 35.432C60.151 35.358 60.796 35.32 61.441 35.32C62.086 35.32 62.731 35.358 63.328 35.432C64.988 35.639 66.284 36.167 66.284 37.037C66.284 37.052 66.283 37.065 66.282 37.079L63.563 72.619Z" fill="#FFB426"/>
</g>
<defs>
<clipPath id="clip0_6348_36">
<rect width="122.88" height="98.023" fill="white"/>
</clipPath>
</defs>
</svg>
